<?xml version="1.0" encoding="UTF-8" standalone="no"?>
<!-- Created with Inkscape (http://www.inkscape.org/) -->

<svg
   xmlns:dc="http://purl.org/dc/elements/1.1/"
   xmlns:cc="http://creativecommons.org/ns#"
   xmlns:rdf="http://www.w3.org/1999/02/22-rdf-syntax-ns#"
   xmlns:svg="http://www.w3.org/2000/svg"
   xmlns="http://www.w3.org/2000/svg"
   xmlns:sodipodi="http://sodipodi.sourceforge.net/DTD/sodipodi-0.dtd"
   xmlns:inkscape="http://www.inkscape.org/namespaces/inkscape"
   width="75.792587mm"
   height="132.29166mm"
   viewBox="0 0 75.792587 132.29166"
   version="1.1"
   id="svg94"
   sodipodi:docname="qrd.svg"
   inkscape:version="0.92.2 5c3e80d, 2017-08-06">
  <defs
     id="defs88" />
  <sodipodi:namedview
     id="base"
     pagecolor="#ffffff"
     bordercolor="#666666"
     borderopacity="1.0"
     inkscape:pageopacity="0.0"
     inkscape:pageshadow="2"
     inkscape:zoom="0.35"
     inkscape:cx="905.71428"
     inkscape:cy="102.85718"
     inkscape:document-units="mm"
     inkscape:current-layer="layer1"
     showgrid="false"
     inkscape:window-width="1680"
     inkscape:window-height="1005"
     inkscape:window-x="0"
     inkscape:window-y="1"
     inkscape:window-maximized="1"
     fit-margin-top="0"
     fit-margin-left="0"
     fit-margin-right="0"
     fit-margin-bottom="0" />
  <metadata
     id="metadata91">
    <rdf:RDF>
      <cc:Work
         rdf:about="">
        <dc:format>image/svg+xml</dc:format>
        <dc:type
           rdf:resource="http://purl.org/dc/dcmitype/StillImage" />
        <dc:title></dc:title>
      </cc:Work>
    </rdf:RDF>
  </metadata>
  <g
     inkscape:label="Layer 1"
     inkscape:groupmode="layer"
     id="layer1"
     transform="translate(0,-164.70835)">
    <text
       xml:space="preserve"
       style="font-style:normal;font-variant:normal;font-weight:normal;font-stretch:normal;font-size:10.58333302px;line-height:1.25;font-family:'Bravura Text';-inkscape-font-specification:'Bravura Text, Normal';font-variant-ligatures:normal;font-variant-caps:normal;font-variant-numeric:normal;font-feature-settings:normal;text-align:start;letter-spacing:0px;word-spacing:0px;writing-mode:lr-tb;text-anchor:start;fill:#000000;fill-opacity:1;stroke:none;stroke-width:0.26458332"
       x="16.630953"
       y="117.83928"
       id="text98"><tspan
         sodipodi:role="line"
         id="tspan100"
         x="16.630953"
         y="127.62886" /></text>
    <text
       xml:space="preserve"
       style="font-style:normal;font-variant:normal;font-weight:normal;font-stretch:normal;font-size:50.79999924px;line-height:1.25;font-family:'Bravura Text';-inkscape-font-specification:'Bravura Text';letter-spacing:0px;word-spacing:0px;fill:#000000;fill-opacity:1;stroke:none;stroke-width:0.26458332"
       x="16.630953"
       y="111.03571"
       id="text104"><tspan
         sodipodi:role="line"
         id="tspan102"
         x="16.630953"
         y="158.02571"
         style="font-style:normal;font-variant:normal;font-weight:normal;font-stretch:normal;font-size:50.79999924px;font-family:'Bravura Text';-inkscape-font-specification:'Bravura Text';stroke-width:0.26458332" /></text>
    <g
       id="g555"
       transform="matrix(1.83946,0,0,1.83946,-0.2212252,-256.39868)">
      <path
         d="m 7.4564602,268.37678 c 1.5634511,1.92424 2.8863718,3.84849 4.2092918,5.77274 0.120265,0.48106 0.601327,1.20265 0.601327,1.44318 0,0 0,0.24053 -0.120265,0.3608 -0.240531,0.3608 -0.601328,0.48106 -1.08239,0.48106 -0.360796,0 -1.2026544,-0.24053 -1.5634508,-0.36079 -0.4810619,0 -1.0823892,-0.24054 -1.5634511,-0.24054 -4.0890261,0 -7.81725572,4.08903 -7.81725572,9.26045 0,4.81061 4.08902602,9.50097 11.18468862,14.91291 0.721593,0.60133 1.683717,0.84186 2.40531,0.84186 0.721593,0 1.443185,-0.24053 1.443185,-0.60132 0.120266,-0.24054 0.240531,-0.48107 0.240531,-0.60133 0,-0.96213 -0.721592,-1.68372 -1.563451,-2.40531 -1.202654,0 -2.285044,-2.52558 -2.525575,-3.36743 -0.240531,-0.84186 -0.360796,-1.68372 -0.360796,-2.52558 0,-3.00664 1.443186,-6.37407 4.570088,-6.9754 0.481062,-0.12026 0.962124,-0.12026 1.563451,-0.12026 2.766106,0 5.893008,1.08239 7.456459,1.68371 0.120266,0 0.240531,0.12027 0.240531,0.12027 0.360797,0.12027 0.481062,0.12027 0.721593,0.12027 0.240531,0 0.481062,-0.12027 0.481062,-0.48107 0,-1.08239 -2.525575,-4.32955 -3.607964,-5.41194 -3.607964,-4.44983 -6.614601,-8.05779 -6.614601,-13.34947 0,-0.48106 0.120265,-0.96212 0.120265,-1.32292 0.360797,-5.53221 3.848495,-10.22257 6.37407,-14.07106 0.240531,-0.48106 0.360797,-0.96212 0.360797,-1.44319 0,-0.96212 -0.360797,-1.92424 -0.360797,-1.92424 0,0 -14.3115909,-16.83717 -15.8750421,-18.52089 -0.4810618,-0.48106 -1.2026547,-0.72159 -1.803982,-0.72159 -0.9621238,0 -1.9242476,0.60133 -1.9242476,1.92425 0,0.48106 0.1202655,0.96212 0.4810619,1.56345 0.3607964,1.08239 5.7727427,6.01327 5.7727427,12.8684 0,3.60797 -1.4431857,7.69699 -5.7727427,12.26708 -0.9621238,0.96213 -1.3229202,2.04452 -1.3229202,2.76611 0,1.32292 0.9621238,2.28504 0.9621238,2.28504 z"
         style="font-style:normal;font-variant:normal;font-weight:normal;font-stretch:normal;font-size:medium;line-height:1.25;font-family:'Bravura Text';-inkscape-font-specification:'Bravura Text, Normal';font-variant-ligatures:normal;font-variant-caps:normal;font-variant-numeric:normal;font-feature-settings:normal;text-align:start;letter-spacing:0px;word-spacing:0px;writing-mode:lr-tb;text-anchor:start;fill:#000000;fill-opacity:1;stroke:none;stroke-width:0.62638098"
         id="path546"
         inkscape:connector-curvature="0" />
      <path
         d="m 41.323984,264.76881 c 0,-2.64584 -2.164778,-4.81062 -4.810619,-4.81062 -2.64584,0 -4.810618,2.16478 -4.810618,4.81062 0,2.64584 2.164778,4.81062 4.810618,4.81062 2.645841,0 4.810619,-2.16478 4.810619,-4.81062 z"
         style="font-style:normal;font-variant:normal;font-weight:normal;font-stretch:normal;font-size:medium;line-height:1.25;font-family:'Bravura Text';-inkscape-font-specification:'Bravura Text, Normal';font-variant-ligatures:normal;font-variant-caps:normal;font-variant-numeric:normal;font-feature-settings:normal;text-align:start;letter-spacing:0px;word-spacing:0px;writing-mode:lr-tb;text-anchor:start;fill:#000000;fill-opacity:1;stroke:none;stroke-width:0.62638098"
         id="path548"
         inkscape:connector-curvature="0" />
    </g>
  </g>
</svg>
