<?xml version="1.0" encoding="UTF-8" standalone="no"?>
<!-- Created with Inkscape (http://www.inkscape.org/) -->

<svg
   xmlns:dc="http://purl.org/dc/elements/1.1/"
   xmlns:cc="http://creativecommons.org/ns#"
   xmlns:rdf="http://www.w3.org/1999/02/22-rdf-syntax-ns#"
   xmlns:svg="http://www.w3.org/2000/svg"
   xmlns="http://www.w3.org/2000/svg"
   xmlns:sodipodi="http://sodipodi.sourceforge.net/DTD/sodipodi-0.dtd"
   xmlns:inkscape="http://www.inkscape.org/namespaces/inkscape"
   width="500"
   height="363.90085"
   viewBox="0 0 132.29166 96.282102"
   version="1.1"
   id="svg94"
   sodipodi:docname="qe.svg"
   inkscape:version="0.92.2 5c3e80d, 2017-08-06">
  <defs
     id="defs88" />
  <sodipodi:namedview
     id="base"
     pagecolor="#ffffff"
     bordercolor="#666666"
     borderopacity="1.0"
     inkscape:pageopacity="0.0"
     inkscape:pageshadow="2"
     inkscape:zoom="0.35"
     inkscape:cx="552.85714"
     inkscape:cy="102.85722"
     inkscape:document-units="mm"
     inkscape:current-layer="layer1"
     showgrid="false"
     inkscape:window-width="1680"
     inkscape:window-height="1005"
     inkscape:window-x="0"
     inkscape:window-y="1"
     inkscape:window-maximized="1"
     units="px"
     fit-margin-top="0"
     fit-margin-left="0"
     fit-margin-right="0"
     fit-margin-bottom="0" />
  <metadata
     id="metadata91">
    <rdf:RDF>
      <cc:Work
         rdf:about="">
        <dc:format>image/svg+xml</dc:format>
        <dc:type
           rdf:resource="http://purl.org/dc/dcmitype/StillImage" />
        <dc:title></dc:title>
      </cc:Work>
    </rdf:RDF>
  </metadata>
  <g
     inkscape:label="Layer 1"
     inkscape:groupmode="layer"
     id="layer1"
     transform="translate(0,-200.7179)">
    <text
       xml:space="preserve"
       style="font-style:normal;font-variant:normal;font-weight:normal;font-stretch:normal;font-size:10.58333302px;line-height:1.25;font-family:'Bravura Text';-inkscape-font-specification:'Bravura Text, Normal';font-variant-ligatures:normal;font-variant-caps:normal;font-variant-numeric:normal;font-feature-settings:normal;text-align:start;letter-spacing:0px;word-spacing:0px;writing-mode:lr-tb;text-anchor:start;fill:#000000;fill-opacity:1;stroke:none;stroke-width:0.26458332"
       x="16.630953"
       y="117.83928"
       id="text98"><tspan
         sodipodi:role="line"
         id="tspan100"
         x="16.630953"
         y="127.62886" /></text>
    <text
       xml:space="preserve"
       style="font-style:normal;font-variant:normal;font-weight:normal;font-stretch:normal;font-size:50.79999924px;line-height:1.25;font-family:'Bravura Text';-inkscape-font-specification:'Bravura Text';letter-spacing:0px;word-spacing:0px;fill:#000000;fill-opacity:1;stroke:none;stroke-width:0.26458332"
       x="16.630953"
       y="111.03571"
       id="text104"><tspan
         sodipodi:role="line"
         id="tspan102"
         x="16.630953"
         y="158.02571"
         style="font-style:normal;font-variant:normal;font-weight:normal;font-stretch:normal;font-size:50.79999924px;font-family:'Bravura Text';-inkscape-font-specification:'Bravura Text';stroke-width:0.26458332" /></text>
    <g
       aria-label="    "
       style="font-style:normal;font-variant:normal;font-weight:normal;font-stretch:normal;font-size:120.26547241px;line-height:1.25;font-family:'Bravura Text';-inkscape-font-specification:'Bravura Text, Normal';font-variant-ligatures:normal;font-variant-caps:normal;font-variant-numeric:normal;font-feature-settings:normal;text-align:start;letter-spacing:0px;word-spacing:0px;writing-mode:lr-tb;text-anchor:start;fill:#000000;fill-opacity:1;stroke:none;stroke-width:0.62638098"
       id="text108"
       transform="matrix(0.98472294,0,0,0.98472294,-8.943857e-7,22.893695)">
      <path
         d="m 29.104245,253.70439 c -1.924247,-1.68372 -4.570088,-2.52558 -7.69699,-2.52558 -11.9062818,0 -21.40725409173874,8.77938 -21.40725409173874,18.16009 0,5.65248 4.57008799173874,9.01991 10.46309609173874,9.01991 9.621238,0 21.52752,-9.01991 21.52752,-18.16009 v -79.61574 h -2.886372 z"
         id="path4265"
         inkscape:connector-curvature="0" />
      <path
         d="m 123.27963,207.64271 c -4.93089,-7.57672 -9.01991,-15.51424 -10.4631,-24.77469 -0.36079,-1.56345 -1.08239,-2.04451 -2.88637,-2.04451 -0.48106,0 -0.96212,0.12027 -0.96212,0.84186 v 0.12027 c 0,0 0,0.24053 0,0.48106 v 22.60991 c 0,0 0,0 0,0 v 48.58725 c -1.92425,-1.68372 -4.57009,-2.52558 -7.69699,-2.52558 -11.906284,0 -21.407257,8.77938 -21.407257,18.03982 0,5.65248 4.570088,9.01991 10.463096,9.01991 9.621238,0 21.527521,-8.89964 21.527521,-18.03982 V 205.959 c 5.89301,3.72822 12.98867,14.31159 15.99531,21.28698 1.44318,3.24717 2.28504,8.77938 2.28504,14.43186 0,4.32956 -0.60133,8.89965 -2.28504,13.2292 -0.12027,0.48106 -0.24053,0.96213 -0.24053,1.44319 0,1.44318 0.96212,2.40531 1.56345,2.7661 l 0.12026,0.12027 c 0.84186,0 2.04452,-0.3608 2.52558,-1.92425 0,0 2.52557,-9.14017 2.52557,-16.7169 0,-12.02655 -5.05115,-23.3315 -11.06442,-32.95274 z"
         id="path4267"
         inkscape:connector-curvature="0" />
    </g>
  </g>
</svg>
