<?xml version="1.0" encoding="UTF-8" standalone="no"?>
<!-- Created with Inkscape (http://www.inkscape.org/) -->

<svg
   xmlns:dc="http://purl.org/dc/elements/1.1/"
   xmlns:cc="http://creativecommons.org/ns#"
   xmlns:rdf="http://www.w3.org/1999/02/22-rdf-syntax-ns#"
   xmlns:svg="http://www.w3.org/2000/svg"
   xmlns="http://www.w3.org/2000/svg"
   xmlns:sodipodi="http://sodipodi.sourceforge.net/DTD/sodipodi-0.dtd"
   xmlns:inkscape="http://www.inkscape.org/namespaces/inkscape"
   width="100.97945mm"
   height="132.29167mm"
   viewBox="0 0 100.97945 132.29167"
   version="1.1"
   id="svg94"
   sodipodi:docname="uee.svg"
   inkscape:version="0.92.2 5c3e80d, 2017-08-06">
  <defs
     id="defs88" />
  <sodipodi:namedview
     id="base"
     pagecolor="#ffffff"
     bordercolor="#666666"
     borderopacity="1.0"
     inkscape:pageopacity="0.0"
     inkscape:pageshadow="2"
     inkscape:zoom="0.35"
     inkscape:cx="552.85713"
     inkscape:cy="102.85721"
     inkscape:document-units="mm"
     inkscape:current-layer="layer1"
     showgrid="false"
     inkscape:window-width="1680"
     inkscape:window-height="1005"
     inkscape:window-x="0"
     inkscape:window-y="1"
     inkscape:window-maximized="1"
     units="px"
     inkscape:snap-text-baseline="true"
     fit-margin-top="0"
     fit-margin-left="0"
     fit-margin-right="0"
     fit-margin-bottom="0" />
  <metadata
     id="metadata91">
    <rdf:RDF>
      <cc:Work
         rdf:about="">
        <dc:format>image/svg+xml</dc:format>
        <dc:type
           rdf:resource="http://purl.org/dc/dcmitype/StillImage" />
        <dc:title></dc:title>
      </cc:Work>
    </rdf:RDF>
  </metadata>
  <g
     inkscape:label="Layer 1"
     inkscape:groupmode="layer"
     id="layer1"
     transform="translate(-9.0826125e-7,-164.70833)">
    <text
       xml:space="preserve"
       style="font-style:normal;font-variant:normal;font-weight:normal;font-stretch:normal;font-size:10.58333302px;line-height:1.25;font-family:'Bravura Text';-inkscape-font-specification:'Bravura Text, Normal';font-variant-ligatures:normal;font-variant-caps:normal;font-variant-numeric:normal;font-feature-settings:normal;text-align:start;letter-spacing:0px;word-spacing:0px;writing-mode:lr-tb;text-anchor:start;fill:#000000;fill-opacity:1;stroke:none;stroke-width:0.26458332"
       x="16.630953"
       y="117.83928"
       id="text98"><tspan
         sodipodi:role="line"
         id="tspan100"
         x="16.630953"
         y="127.62886" /></text>
    <text
       xml:space="preserve"
       style="font-style:normal;font-variant:normal;font-weight:normal;font-stretch:normal;font-size:50.79999924px;line-height:1.25;font-family:'Bravura Text';-inkscape-font-specification:'Bravura Text';letter-spacing:0px;word-spacing:0px;fill:#000000;fill-opacity:1;stroke:none;stroke-width:0.26458332"
       x="16.630953"
       y="111.03571"
       id="text104"><tspan
         sodipodi:role="line"
         id="tspan102"
         x="16.630953"
         y="158.02571"
         style="font-style:normal;font-variant:normal;font-weight:normal;font-stretch:normal;font-size:50.79999924px;font-family:'Bravura Text';-inkscape-font-specification:'Bravura Text';stroke-width:0.26458332" /></text>
    <text
       xml:space="preserve"
       style="font-style:normal;font-weight:normal;font-size:10.58333302px;line-height:1.25;font-family:sans-serif;letter-spacing:0px;word-spacing:0px;fill:#000000;fill-opacity:1;stroke:none;stroke-width:0.26458332"
       x="68.035713"
       y="94.404747"
       id="text4345"><tspan
         sodipodi:role="line"
         id="tspan4343"
         x="68.035713"
         y="103.76852"
         style="stroke-width:0.26458332"></tspan></text>
    <g
       id="g4392"
       transform="matrix(1.0427046,0,0,1.0427046,-3.8786942e-8,6.7539861)">
      <g
         id="text108"
         style="font-style:normal;font-variant:normal;font-weight:normal;font-stretch:normal;font-size:120.26547241px;line-height:1.25;font-family:'Bravura Text';-inkscape-font-specification:'Bravura Text, Normal';font-variant-ligatures:normal;font-variant-caps:normal;font-variant-numeric:normal;font-feature-settings:normal;text-align:start;letter-spacing:0px;word-spacing:0px;writing-mode:lr-tb;text-anchor:start;fill:#000000;fill-opacity:1;stroke:none;stroke-width:0.62638098"
         aria-label="">
        <path
           id="path4379"
           d="m 29.104245,253.70439 c -1.924247,-1.56345 -4.570088,-2.52558 -7.69699,-2.52558 -11.9062818,0 -21.40725409173874,8.77938 -21.40725409173874,18.16009 0,5.65248 4.57008799173874,9.01991 10.46309609173874,9.01991 9.621238,0 21.407254,-9.01991 21.52752,-18.03982 v -79.97654 h -2.886372 z"
           inkscape:connector-curvature="0" />
        <path
           id="path4381"
           d="M 64.428469,180.34245 H 31.47573 V 192.369 h 32.952739 z"
           inkscape:connector-curvature="0" />
        <path
           id="path4383"
           d="M 63.89103,180.34245 V 192.369 h 30.066368 v 61.21512 c -1.924247,-1.56345 -4.570088,-2.52557 -7.69699,-2.52557 -11.906282,0 -21.407254,8.77938 -21.407254,18.16008 0,5.65248 4.570088,9.01991 10.463096,9.01991 9.621238,0 21.407254,-8.89964 21.52752,-18.03982 v -79.85627 z"
           inkscape:connector-curvature="0" />
      </g>
      <g
         id="text4374"
         style="font-style:normal;font-weight:normal;font-size:61.99864578px;line-height:1.25;font-family:sans-serif;letter-spacing:0px;word-spacing:0px;fill:#000000;fill-opacity:1;stroke:none;stroke-width:1.5499661"
         aria-label="">
        <path
           id="path4376"
           style="stroke-width:1.5499661"
           d="m 63.522172,151.48523 c -4.029912,0 -6.571856,2.72794 -6.571856,5.57988 0,1.05397 0.557987,2.10795 2.107954,2.10795 1.36397,0 2.355948,-1.17797 2.355948,-2.54194 0,-0.68199 -0.309993,-1.17798 -0.619986,-1.48797 -0.309994,-0.30999 -0.557988,-0.49599 -0.557988,-0.86798 0,-0.61999 0.929979,-1.42597 2.665942,-1.42597 1.301971,0 2.541944,0.43399 2.541944,2.16995 0,2.29395 -1.053977,4.7739 -4.959892,6.32386 -4.153909,1.67397 -5.889871,4.15391 -6.757852,7.37784 -0.062,0.372 -0.123997,0.55799 -0.123997,0.74399 0,0.49599 0.309993,0.74398 0.805982,0.74398 0.495989,0 0.743984,-0.24799 0.991978,-0.86798 0.247995,-0.61999 0.557988,-1.11598 1.301972,-1.11598 1.735962,0 2.975935,2.16996 6.261863,2.16996 2.541945,0 3.65792,-1.61197 4.5879,-4.40191 0.123997,-0.30999 0.185996,-0.49599 0.185996,-0.68198 0,-0.37199 -0.371992,-0.55799 -0.743984,-0.55799 -0.309993,0 -0.495989,0.124 -0.743984,0.49599 -0.619986,0.80598 -1.239972,1.11597 -2.107954,1.11597 -1.487967,0 -2.665941,-0.86798 -4.215907,-0.86798 -0.743984,0 -1.425969,0.062 -1.983957,0.31 -0.433991,0.18599 -0.619987,0.30999 -0.805982,0.30999 -0.371992,0 -0.185996,-0.37199 0.185995,-0.86798 1.115976,-1.23997 2.78994,-1.98396 4.711898,-2.41795 3.905914,-0.86798 7.377838,-2.72794 7.377838,-7.06784 0,-2.66595 -2.169952,-4.27791 -5.889871,-4.27791 z"
           inkscape:connector-curvature="0" />
      </g>
    </g>
  </g>
</svg>
