<?xml version="1.0" encoding="UTF-8" standalone="no"?>
<!-- Created with Inkscape (http://www.inkscape.org/) -->

<svg
   xmlns:dc="http://purl.org/dc/elements/1.1/"
   xmlns:cc="http://creativecommons.org/ns#"
   xmlns:rdf="http://www.w3.org/1999/02/22-rdf-syntax-ns#"
   xmlns:svg="http://www.w3.org/2000/svg"
   xmlns="http://www.w3.org/2000/svg"
   xmlns:sodipodi="http://sodipodi.sourceforge.net/DTD/sodipodi-0.dtd"
   xmlns:inkscape="http://www.inkscape.org/namespaces/inkscape"
   width="132.29167mm"
   height="72.611099mm"
   viewBox="0 0 132.29167 72.611099"
   version="1.1"
   id="svg94"
   sodipodi:docname="cxeer.svg"
   inkscape:version="0.92.2 5c3e80d, 2017-08-06">
  <defs
     id="defs88" />
  <sodipodi:namedview
     id="base"
     pagecolor="#ffffff"
     bordercolor="#666666"
     borderopacity="1.0"
     inkscape:pageopacity="0.0"
     inkscape:pageshadow="2"
     inkscape:zoom="0.35"
     inkscape:cx="905.71428"
     inkscape:cy="102.85715"
     inkscape:document-units="mm"
     inkscape:current-layer="layer1"
     showgrid="false"
     inkscape:window-width="1680"
     inkscape:window-height="1005"
     inkscape:window-x="0"
     inkscape:window-y="1"
     inkscape:window-maximized="1"
     fit-margin-top="0"
     fit-margin-left="0"
     fit-margin-right="0"
     fit-margin-bottom="0" />
  <metadata
     id="metadata91">
    <rdf:RDF>
      <cc:Work
         rdf:about="">
        <dc:format>image/svg+xml</dc:format>
        <dc:type
           rdf:resource="http://purl.org/dc/dcmitype/StillImage" />
        <dc:title></dc:title>
      </cc:Work>
    </rdf:RDF>
  </metadata>
  <g
     inkscape:label="Layer 1"
     inkscape:groupmode="layer"
     id="layer1"
     transform="translate(-9.0826126e-7,-224.3889)">
    <text
       xml:space="preserve"
       style="font-style:normal;font-variant:normal;font-weight:normal;font-stretch:normal;font-size:10.58333302px;line-height:1.25;font-family:'Bravura Text';-inkscape-font-specification:'Bravura Text, Normal';font-variant-ligatures:normal;font-variant-caps:normal;font-variant-numeric:normal;font-feature-settings:normal;text-align:start;letter-spacing:0px;word-spacing:0px;writing-mode:lr-tb;text-anchor:start;fill:#000000;fill-opacity:1;stroke:none;stroke-width:0.26458332"
       x="16.630953"
       y="117.83928"
       id="text98"><tspan
         sodipodi:role="line"
         id="tspan100"
         x="16.630953"
         y="127.62886" /></text>
    <text
       xml:space="preserve"
       style="font-style:normal;font-variant:normal;font-weight:normal;font-stretch:normal;font-size:50.79999924px;line-height:1.25;font-family:'Bravura Text';-inkscape-font-specification:'Bravura Text';letter-spacing:0px;word-spacing:0px;fill:#000000;fill-opacity:1;stroke:none;stroke-width:0.26458332"
       x="16.630953"
       y="111.03571"
       id="text104"><tspan
         sodipodi:role="line"
         id="tspan102"
         x="16.630953"
         y="158.02571"
         style="font-style:normal;font-variant:normal;font-weight:normal;font-stretch:normal;font-size:50.79999924px;font-family:'Bravura Text';-inkscape-font-specification:'Bravura Text';stroke-width:0.26458332" /></text>
    <g
       id="g117"
       transform="matrix(0.74080592,0,0,0.74080592,2.3541594e-7,76.980642)">
      <path
         inkscape:connector-curvature="0"
         d="M 29.104245,272.34558 C 27.179998,270.78213 24.534157,269.82 21.407255,269.82 9.5009732,269.82 9.0826126e-7,278.59938 9.0826126e-7,287.98009 9.0826126e-7,293.63257 4.5700889,297 10.463097,297 c 9.621238,0 21.407254,-9.01991 21.52752,-18.03982 v -79.97654 h -2.886372 z"
         id="path27"
         style="font-style:normal;font-variant:normal;font-weight:normal;font-stretch:normal;font-size:medium;line-height:1.25;font-family:'Bravura Text';-inkscape-font-specification:'Bravura Text, Normal';font-variant-ligatures:normal;font-variant-caps:normal;font-variant-numeric:normal;font-feature-settings:normal;text-align:start;letter-spacing:0px;word-spacing:0px;writing-mode:lr-tb;text-anchor:start;fill:#000000;fill-opacity:1;stroke:none;stroke-width:0.62638098" />
      <path
         inkscape:connector-curvature="0"
         d="M 64.428469,198.98364 H 31.47573 v 12.02655 h 32.952739 z"
         id="path29"
         style="font-style:normal;font-variant:normal;font-weight:normal;font-stretch:normal;font-size:medium;line-height:1.25;font-family:'Bravura Text';-inkscape-font-specification:'Bravura Text, Normal';font-variant-ligatures:normal;font-variant-caps:normal;font-variant-numeric:normal;font-feature-settings:normal;text-align:start;letter-spacing:0px;word-spacing:0px;writing-mode:lr-tb;text-anchor:start;fill:#000000;fill-opacity:1;stroke:none;stroke-width:0.62638098" />
      <path
         inkscape:connector-curvature="0"
         d="m 63.89103,198.98364 v 12.02655 h 30.066368 v 61.21512 c -1.924247,-1.56345 -4.570088,-2.52557 -7.69699,-2.52557 -11.906282,0 -21.407254,8.77938 -21.407254,18.16008 0,5.65248 4.570088,9.01991 10.463096,9.01991 9.621238,0 21.407254,-8.89964 21.52752,-18.03982 v -79.85627 z"
         id="path31"
         style="font-style:normal;font-variant:normal;font-weight:normal;font-stretch:normal;font-size:medium;line-height:1.25;font-family:'Bravura Text';-inkscape-font-specification:'Bravura Text, Normal';font-variant-ligatures:normal;font-variant-caps:normal;font-variant-numeric:normal;font-feature-settings:normal;text-align:start;letter-spacing:0px;word-spacing:0px;writing-mode:lr-tb;text-anchor:start;fill:#000000;fill-opacity:1;stroke:none;stroke-width:0.62638098" />
      <path
         inkscape:connector-curvature="0"
         d="m 121.6241,230.73366 c 0,-3.4877 -2.88637,-6.37407 -6.37407,-6.37407 -3.60797,0 -6.49434,2.88637 -6.49434,6.37407 0,2.04451 1.20266,3.8485 2.64584,4.93088 0.84186,0.60133 1.68372,1.08239 2.64584,1.32292 0.7216,0.12027 1.68372,0.3608 2.52558,0.3608 1.32292,0 2.64584,-0.3608 3.72823,-0.72159 1.32292,-0.3608 2.16478,-0.72159 3.4877,-1.44319 0.12026,-0.12026 0.36079,-0.12026 0.48106,-0.12026 0.36079,0 0.48106,0.48106 0.48106,0.96212 0,0.24053 0,0.60133 -0.12027,0.96212 -0.24053,1.44319 -7.21592,20.68567 -8.89964,26.93947 0,1.20266 2.16478,1.32292 2.76611,1.32292 1.08238,0 2.40531,-0.24053 3.36743,-0.96212 0.24053,-0.24053 9.7415,-34.03513 9.7415,-34.03513 0.3608,-1.68372 0.84186,-3.24717 0.96213,-3.72823 0,-0.96212 -0.96213,-1.44319 -1.20266,-1.56345 -0.24053,0 -0.48106,0 -1.08239,0.48106 -0.60133,0.48106 -5.41194,6.2538 -8.65911,6.2538 z"
         id="path33"
         style="font-style:normal;font-variant:normal;font-weight:normal;font-stretch:normal;font-size:medium;line-height:1.25;font-family:'Bravura Text';-inkscape-font-specification:'Bravura Text, Normal';font-variant-ligatures:normal;font-variant-caps:normal;font-variant-numeric:normal;font-feature-settings:normal;text-align:start;letter-spacing:0px;word-spacing:0px;writing-mode:lr-tb;text-anchor:start;fill:#000000;fill-opacity:1;stroke:none;stroke-width:0.62638098" />
      <g
         transform="translate(-0.68036258,16.92532)"
         id="g241">
        <path
           inkscape:connector-curvature="0"
           id="path228"
           style="font-style:normal;font-weight:normal;font-size:medium;line-height:1.25;font-family:sans-serif;letter-spacing:0px;word-spacing:0px;fill:#000000;fill-opacity:1;stroke:none;stroke-width:1.66894257"
           d="m 151.92144,280.07468 h -7.79057 v -9.29002 h 7.79057 z" />
        <path
           inkscape:connector-curvature="0"
           id="path230"
           style="font-style:normal;font-weight:normal;font-size:medium;line-height:1.25;font-family:sans-serif;letter-spacing:0px;word-spacing:0px;fill:#000000;fill-opacity:1;stroke:none;stroke-width:1.66894257"
           d="m 165.58992,280.07468 h -7.79057 v -9.29002 h 7.79057 z" />
        <path
           inkscape:connector-curvature="0"
           id="path232"
           style="font-style:normal;font-weight:normal;font-size:medium;line-height:1.25;font-family:sans-serif;letter-spacing:0px;word-spacing:0px;fill:#000000;fill-opacity:1;stroke:none;stroke-width:1.66894257"
           d="m 179.2584,280.07468 h -7.79057 v -9.29002 h 7.79057 z" />
      </g>
    </g>
  </g>
</svg>
