<?xml version="1.0" encoding="UTF-8" standalone="no"?>
<!-- Created with Inkscape (http://www.inkscape.org/) -->

<svg
   xmlns:dc="http://purl.org/dc/elements/1.1/"
   xmlns:cc="http://creativecommons.org/ns#"
   xmlns:rdf="http://www.w3.org/1999/02/22-rdf-syntax-ns#"
   xmlns:svg="http://www.w3.org/2000/svg"
   xmlns="http://www.w3.org/2000/svg"
   xmlns:sodipodi="http://sodipodi.sourceforge.net/DTD/sodipodi-0.dtd"
   xmlns:inkscape="http://www.inkscape.org/namespaces/inkscape"
   width="132.29167mm"
   height="62.567638mm"
   viewBox="0 0 132.29167 62.567638"
   version="1.1"
   id="svg94"
   sodipodi:docname="cxeerssr.svg"
   inkscape:version="0.92.2 5c3e80d, 2017-08-06">
  <defs
     id="defs88" />
  <sodipodi:namedview
     id="base"
     pagecolor="#ffffff"
     bordercolor="#666666"
     borderopacity="1.0"
     inkscape:pageopacity="0.0"
     inkscape:pageshadow="2"
     inkscape:zoom="0.35"
     inkscape:cx="905.71428"
     inkscape:cy="102.85715"
     inkscape:document-units="mm"
     inkscape:current-layer="layer1"
     showgrid="false"
     inkscape:window-width="1680"
     inkscape:window-height="1005"
     inkscape:window-x="0"
     inkscape:window-y="1"
     inkscape:window-maximized="1"
     fit-margin-top="0"
     fit-margin-left="0"
     fit-margin-right="0"
     fit-margin-bottom="0" />
  <metadata
     id="metadata91">
    <rdf:RDF>
      <cc:Work
         rdf:about="">
        <dc:format>image/svg+xml</dc:format>
        <dc:type
           rdf:resource="http://purl.org/dc/dcmitype/StillImage" />
        <dc:title></dc:title>
      </cc:Work>
    </rdf:RDF>
  </metadata>
  <g
     inkscape:label="Layer 1"
     inkscape:groupmode="layer"
     id="layer1"
     transform="translate(-9.0826126e-7,-234.43236)">
    <text
       xml:space="preserve"
       style="font-style:normal;font-variant:normal;font-weight:normal;font-stretch:normal;font-size:10.58333302px;line-height:1.25;font-family:'Bravura Text';-inkscape-font-specification:'Bravura Text, Normal';font-variant-ligatures:normal;font-variant-caps:normal;font-variant-numeric:normal;font-feature-settings:normal;text-align:start;letter-spacing:0px;word-spacing:0px;writing-mode:lr-tb;text-anchor:start;fill:#000000;fill-opacity:1;stroke:none;stroke-width:0.26458332"
       x="16.630953"
       y="117.83928"
       id="text98"><tspan
         sodipodi:role="line"
         id="tspan100"
         x="16.630953"
         y="127.62886" /></text>
    <text
       xml:space="preserve"
       style="font-style:normal;font-variant:normal;font-weight:normal;font-stretch:normal;font-size:50.79999924px;line-height:1.25;font-family:'Bravura Text';-inkscape-font-specification:'Bravura Text';letter-spacing:0px;word-spacing:0px;fill:#000000;fill-opacity:1;stroke:none;stroke-width:0.26458332"
       x="16.630953"
       y="111.03571"
       id="text104"><tspan
         sodipodi:role="line"
         id="tspan102"
         x="16.630953"
         y="158.02571"
         style="font-style:normal;font-variant:normal;font-weight:normal;font-stretch:normal;font-size:50.79999924px;font-family:'Bravura Text';-inkscape-font-specification:'Bravura Text';stroke-width:0.26458332" /></text>
    <g
       id="g814">
      <path
         d="m 18.478614,281.01066 c -1.221726,-0.99265 -2.901601,-1.60352 -4.886906,-1.60352 -7.5594325,0 -13.59170709173874,5.57412 -13.59170709173874,11.53004 0,3.58882 2.90160049173874,5.72684 6.64313799173874,5.72684 6.1086321,0 13.5917071,-5.72684 13.6680651,-11.45368 v -50.77798 h -1.83259 z"
         style="font-style:normal;font-variant:normal;font-weight:normal;font-stretch:normal;font-size:medium;line-height:1.25;font-family:'Bravura Text';-inkscape-font-specification:'Bravura Text, Normal';font-variant-ligatures:normal;font-variant-caps:normal;font-variant-numeric:normal;font-feature-settings:normal;text-align:start;letter-spacing:0px;word-spacing:0px;writing-mode:lr-tb;text-anchor:start;fill:#000000;fill-opacity:1;stroke:none;stroke-width:0.39769614"
         id="path717"
         inkscape:connector-curvature="0" />
      <path
         d="M 74.283355,234.43236 H 19.984296 v 7.63579 h 54.299059 z"
         style="font-style:normal;font-variant:normal;font-weight:normal;font-stretch:normal;font-size:medium;line-height:1.25;font-family:'Bravura Text';-inkscape-font-specification:'Bravura Text, Normal';font-variant-ligatures:normal;font-variant-caps:normal;font-variant-numeric:normal;font-feature-settings:normal;text-align:start;letter-spacing:0px;word-spacing:0px;writing-mode:lr-tb;text-anchor:start;fill:#000000;fill-opacity:1;stroke:none;stroke-width:0.64068604"
         id="path719"
         inkscape:connector-curvature="0" />
      <path
         d="m 43.082166,259.29451 c 0,-2.21437 -1.83259,-4.04696 -4.046969,-4.04696 -2.290737,0 -4.123327,1.83259 -4.123327,4.04696 0,1.29809 0.76358,2.44346 1.679874,3.13067 0.534506,0.38179 1.069011,0.68722 1.679874,0.83994 0.458147,0.0764 1.069011,0.22908 1.603516,0.22908 0.839937,0 1.679874,-0.22908 2.367095,-0.45815 0.839937,-0.22908 1.374442,-0.45814 2.214379,-0.9163 0.07636,-0.0763 0.229074,-0.0763 0.305432,-0.0763 0.229074,0 0.305432,0.30543 0.305432,0.61086 0,0.15271 0,0.38179 -0.07636,0.61086 -0.152716,0.9163 -4.581474,13.13356 -5.650485,17.10416 0,0.76359 1.374442,0.83994 1.756231,0.83994 0.687222,0 1.527159,-0.15271 2.138022,-0.61086 0.152715,-0.15271 6.18499,-21.60928 6.18499,-21.60928 0.229074,-1.06901 0.534506,-2.06166 0.610863,-2.36709 0,-0.61086 -0.610863,-0.9163 -0.763578,-0.99265 -0.152716,0 -0.305432,0 -0.687222,0.30543 -0.381789,0.30543 -3.436105,3.9706 -5.497769,3.9706 z"
         style="font-style:normal;font-variant:normal;font-weight:normal;font-stretch:normal;font-size:medium;line-height:1.25;font-family:'Bravura Text';-inkscape-font-specification:'Bravura Text, Normal';font-variant-ligatures:normal;font-variant-caps:normal;font-variant-numeric:normal;font-feature-settings:normal;text-align:start;letter-spacing:0px;word-spacing:0px;writing-mode:lr-tb;text-anchor:start;fill:#000000;fill-opacity:1;stroke:none;stroke-width:0.39769614"
         id="path721"
         inkscape:connector-curvature="0" />
      <path
         d="m 74.283355,281.34663 c -1.221727,-0.99265 -2.901588,-1.60351 -4.88691,-1.60351 -7.559421,0 -13.591683,5.57412 -13.591683,11.53004 0,3.58882 2.901598,5.72684 6.643127,5.72684 6.10862,0 13.591706,-5.72684 13.668067,-11.45368 v -50.77798 h -1.832601 z"
         style="font-style:normal;font-variant:normal;font-weight:normal;font-stretch:normal;font-size:medium;line-height:1.25;font-family:'Bravura Text';-inkscape-font-specification:'Bravura Text, Normal';font-variant-ligatures:normal;font-variant-caps:normal;font-variant-numeric:normal;font-feature-settings:normal;text-align:start;letter-spacing:0px;word-spacing:0px;writing-mode:lr-tb;text-anchor:start;fill:#000000;fill-opacity:1;stroke:none;stroke-width:0.39769614"
         id="path723"
         inkscape:connector-curvature="0" />
      <path
         d="M 106.16635,245.80968 H 74.619299 v 7.63579 h 31.547051 z m 0,-11.37732 H 74.619299 v 7.63579 h 31.547051 z"
         style="font-style:normal;font-variant:normal;font-weight:normal;font-stretch:normal;font-size:medium;line-height:1.25;font-family:'Bravura Text';-inkscape-font-specification:'Bravura Text, Normal';font-variant-ligatures:normal;font-variant-caps:normal;font-variant-numeric:normal;font-feature-settings:normal;text-align:start;letter-spacing:0px;word-spacing:0px;writing-mode:lr-tb;text-anchor:start;fill:#000000;fill-opacity:1;stroke:none;stroke-width:0.48834687"
         id="path725"
         inkscape:connector-curvature="0" />
      <path
         d="m 94.650456,259.92598 c 0,-1.7592 -1.407366,-3.16657 -3.166578,-3.16657 -1.759206,0 -3.166572,1.40737 -3.166572,3.16657 0,0.93825 0.527763,1.81785 1.290086,2.40426 0.35184,0.2932 0.820961,0.52776 1.290086,0.64504 0.35184,0.11728 0.70368,0.17591 1.172806,0.17591 0.645043,0 1.407366,-0.17591 1.935128,-0.35183 0.645044,-0.17592 1.114164,-0.35185 1.700569,-0.70368 0.11728,-0.0587 0.234566,-0.11729 0.351846,-0.11729 0.11728,0 0.23456,0.11729 0.23456,0.35185 0,0.11727 -0.05864,0.35183 -0.175918,0.70368 -0.05864,0.35184 -2.169698,6.86091 -2.580181,7.74052 -0.351841,0.8796 -1.641927,1.466 -2.28697,1.466 0.05864,-0.17592 0.05864,-0.35184 0.05864,-0.46912 0,-1.81785 -1.466009,-3.22521 -3.225215,-3.22521 -1.759216,0 -3.166582,1.40736 -3.166582,3.22521 0,0.93825 0.586401,1.81785 1.290086,2.40425 0.410483,0.23457 0.82097,0.46913 1.290091,0.64504 0.35184,0.0587 0.762323,0.11728 1.172806,0.11728 0.645043,0 1.407365,-0.11728 1.993771,-0.29319 0.645043,-0.23456 0.93824,-0.35185 1.524646,-0.70369 0.117281,0 0.175923,0.11728 0.175923,0.23456 0,0.0587 -0.05864,0.11728 -0.05864,0.17592 L 87.84818,287.6042 c 0,0.0587 0,0.11728 0,0.17592 0,0.35184 0.410483,0.82096 1.407371,0.82096 1.407366,0 1.641926,-0.5864 1.817844,-1.05552 l 5.453551,-17.88529 c 1.172808,-3.98754 2.111055,-7.15411 2.111055,-7.15411 0,0 1.1728,-4.10482 1.231442,-4.74987 0,-0.0586 0.05867,-0.11727 0.05867,-0.17592 0,-0.2932 -0.351844,-0.46912 -0.46912,-0.52776 -0.23456,0 -0.351844,0.11729 -0.527762,0.23456 -0.293202,0.23456 -2.638817,3.0493 -4.280748,3.10794 z"
         style="font-style:normal;font-variant:normal;font-weight:normal;font-stretch:normal;font-size:medium;line-height:1.25;font-family:'Bravura Text';-inkscape-font-specification:'Bravura Text, Normal';font-variant-ligatures:normal;font-variant-caps:normal;font-variant-numeric:normal;font-feature-settings:normal;text-align:start;letter-spacing:0px;word-spacing:0px;writing-mode:lr-tb;text-anchor:start;fill:#000000;fill-opacity:1;stroke:none;stroke-width:0.3054173"
         id="path729"
         inkscape:connector-curvature="0" />
      <g
         transform="matrix(0.63491094,0,0,0.63491094,18.478549,119.17752)"
         id="g241">
        <path
           inkscape:connector-curvature="0"
           id="path228"
           style="font-style:normal;font-weight:normal;font-size:medium;line-height:1.25;font-family:sans-serif;letter-spacing:0px;word-spacing:0px;fill:#000000;fill-opacity:1;stroke:none;stroke-width:1.66894257"
           d="m 151.92144,280.07468 h -7.79057 v -9.29002 h 7.79057 z" />
        <path
           inkscape:connector-curvature="0"
           id="path230"
           style="font-style:normal;font-weight:normal;font-size:medium;line-height:1.25;font-family:sans-serif;letter-spacing:0px;word-spacing:0px;fill:#000000;fill-opacity:1;stroke:none;stroke-width:1.66894257"
           d="m 165.58992,280.07468 h -7.79057 v -9.29002 h 7.79057 z" />
        <path
           inkscape:connector-curvature="0"
           id="path232"
           style="font-style:normal;font-weight:normal;font-size:medium;line-height:1.25;font-family:sans-serif;letter-spacing:0px;word-spacing:0px;fill:#000000;fill-opacity:1;stroke:none;stroke-width:1.66894257"
           d="m 179.2584,280.07468 h -7.79057 v -9.29002 h 7.79057 z" />
      </g>
    </g>
  </g>
</svg>
