<?xml version="1.0" encoding="UTF-8" standalone="no"?>
<!-- Created with Inkscape (http://www.inkscape.org/) -->

<svg
   xmlns:dc="http://purl.org/dc/elements/1.1/"
   xmlns:cc="http://creativecommons.org/ns#"
   xmlns:rdf="http://www.w3.org/1999/02/22-rdf-syntax-ns#"
   xmlns:svg="http://www.w3.org/2000/svg"
   xmlns="http://www.w3.org/2000/svg"
   xmlns:sodipodi="http://sodipodi.sourceforge.net/DTD/sodipodi-0.dtd"
   xmlns:inkscape="http://www.inkscape.org/namespaces/inkscape"
   width="356.15125mm"
   height="98.016365mm"
   viewBox="0 0 356.15125 98.016365"
   version="1.1"
   id="svg94"
   sodipodi:docname="cxqqrss.svg"
   inkscape:version="0.92.2 5c3e80d, 2017-08-06">
  <defs
     id="defs88" />
  <sodipodi:namedview
     id="base"
     pagecolor="#ffffff"
     bordercolor="#666666"
     borderopacity="1.0"
     inkscape:pageopacity="0.0"
     inkscape:pageshadow="2"
     inkscape:zoom="0.35"
     inkscape:cx="905.71428"
     inkscape:cy="102.85716"
     inkscape:document-units="mm"
     inkscape:current-layer="layer1"
     showgrid="false"
     inkscape:window-width="1680"
     inkscape:window-height="1005"
     inkscape:window-x="0"
     inkscape:window-y="1"
     inkscape:window-maximized="1"
     fit-margin-top="0"
     fit-margin-left="0"
     fit-margin-right="0"
     fit-margin-bottom="0" />
  <metadata
     id="metadata91">
    <rdf:RDF>
      <cc:Work
         rdf:about="">
        <dc:format>image/svg+xml</dc:format>
        <dc:type
           rdf:resource="http://purl.org/dc/dcmitype/StillImage" />
        <dc:title></dc:title>
      </cc:Work>
    </rdf:RDF>
  </metadata>
  <g
     inkscape:label="Layer 1"
     inkscape:groupmode="layer"
     id="layer1"
     transform="translate(-9.0826126e-7,-198.98364)">
    <text
       xml:space="preserve"
       style="font-style:normal;font-variant:normal;font-weight:normal;font-stretch:normal;font-size:10.58333302px;line-height:1.25;font-family:'Bravura Text';-inkscape-font-specification:'Bravura Text, Normal';font-variant-ligatures:normal;font-variant-caps:normal;font-variant-numeric:normal;font-feature-settings:normal;text-align:start;letter-spacing:0px;word-spacing:0px;writing-mode:lr-tb;text-anchor:start;fill:#000000;fill-opacity:1;stroke:none;stroke-width:0.26458332"
       x="16.630953"
       y="117.83928"
       id="text98"><tspan
         sodipodi:role="line"
         id="tspan100"
         x="16.630953"
         y="127.62886" /></text>
    <text
       xml:space="preserve"
       style="font-style:normal;font-variant:normal;font-weight:normal;font-stretch:normal;font-size:50.79999924px;line-height:1.25;font-family:'Bravura Text';-inkscape-font-specification:'Bravura Text';letter-spacing:0px;word-spacing:0px;fill:#000000;fill-opacity:1;stroke:none;stroke-width:0.26458332"
       x="16.630953"
       y="111.03571"
       id="text104"><tspan
         sodipodi:role="line"
         id="tspan102"
         x="16.630953"
         y="158.02571"
         style="font-style:normal;font-variant:normal;font-weight:normal;font-stretch:normal;font-size:50.79999924px;font-family:'Bravura Text';-inkscape-font-specification:'Bravura Text';stroke-width:0.26458332" /></text>
    <path
       inkscape:connector-curvature="0"
       id="path506"
       style="font-style:normal;font-variant:normal;font-weight:normal;font-stretch:normal;font-size:medium;line-height:1.25;font-family:'Bravura Text';-inkscape-font-specification:'Bravura Text, Normal';font-variant-ligatures:normal;font-variant-caps:normal;font-variant-numeric:normal;font-feature-settings:normal;text-align:start;letter-spacing:0px;word-spacing:0px;writing-mode:lr-tb;text-anchor:start;fill:#000000;fill-opacity:1;stroke:none;stroke-width:0.62638098"
       d="M 29.104245,272.34558 C 27.179998,270.66186 24.534157,269.82 21.407255,269.82 9.5009732,269.82 9.0826126e-7,278.59938 9.0826126e-7,287.98009 9.0826126e-7,293.63257 4.5700889,297 10.463097,297 c 9.621238,0 21.52752,-9.01991 21.52752,-18.16009 v -79.61574 h -2.886372 z" />
    <path
       inkscape:connector-curvature="0"
       id="path508"
       style="font-style:normal;font-variant:normal;font-weight:normal;font-stretch:normal;font-size:medium;line-height:1.25;font-family:'Bravura Text';-inkscape-font-specification:'Bravura Text, Normal';font-variant-ligatures:normal;font-variant-caps:normal;font-variant-numeric:normal;font-feature-settings:normal;text-align:start;letter-spacing:0px;word-spacing:0px;writing-mode:lr-tb;text-anchor:start;fill:#000000;fill-opacity:1;stroke:none;stroke-width:0.62638098"
       d="m 108.96804,272.34558 c -1.92425,-1.56345 -4.57009,-2.52558 -7.69699,-2.52558 -11.906284,0 -21.407257,8.77938 -21.407257,18.16009 0,5.65248 4.570088,9.01991 10.463096,9.01991 9.621238,0 21.407251,-9.01991 21.527521,-18.03982 v -79.97654 h -2.88637 z" />
    <path
       inkscape:connector-curvature="0"
       id="path510"
       style="font-style:normal;font-variant:normal;font-weight:normal;font-stretch:normal;font-size:medium;line-height:1.25;font-family:'Bravura Text';-inkscape-font-specification:'Bravura Text, Normal';font-variant-ligatures:normal;font-variant-caps:normal;font-variant-numeric:normal;font-feature-settings:normal;text-align:start;letter-spacing:0px;word-spacing:0px;writing-mode:lr-tb;text-anchor:start;fill:#000000;fill-opacity:1;stroke:none;stroke-width:0.62638098"
       d="m 111.33952,198.98364 v 12.02655 h 30.06637 v 5.893 h -30.06637 v 12.02655 h 30.06637 v 43.29557 c -1.92425,-1.56345 -4.57009,-2.52557 -7.69699,-2.52557 -11.90628,0 -21.40725,8.77938 -21.40725,18.16008 0,5.65248 4.57009,9.01991 10.46309,9.01991 9.62124,0 21.40726,-8.89964 21.52752,-18.03982 v -79.85627 z" />
    <path
       inkscape:connector-curvature="0"
       id="path512"
       style="font-style:normal;font-variant:normal;font-weight:normal;font-stretch:normal;font-size:medium;line-height:1.25;font-family:'Bravura Text';-inkscape-font-specification:'Bravura Text, Normal';font-variant-ligatures:normal;font-variant-caps:normal;font-variant-numeric:normal;font-feature-settings:normal;text-align:start;letter-spacing:0px;word-spacing:0px;writing-mode:lr-tb;text-anchor:start;fill:#000000;fill-opacity:1;stroke:none;stroke-width:0.62638098"
       d="m 211.57891,252.09294 c 1.56345,1.92424 2.88637,3.84849 4.20929,5.77274 0.12027,0.48106 0.60133,1.20265 0.60133,1.44318 0,0 0,0.24053 -0.12026,0.3608 -0.24054,0.3608 -0.60133,0.48106 -1.08239,0.48106 -0.3608,0 -1.20266,-0.24053 -1.56345,-0.36079 -0.48107,0 -1.08239,-0.24054 -1.56346,-0.24054 -4.08902,0 -7.81725,4.08903 -7.81725,9.26045 0,4.81061 4.08902,9.50097 11.18469,14.91291 0.72159,0.60133 1.68371,0.84186 2.40531,0.84186 0.72159,0 1.44318,-0.24053 1.44318,-0.60132 0.12027,-0.24054 0.24053,-0.48107 0.24053,-0.60133 0,-0.96213 -0.72159,-1.68372 -1.56345,-2.40531 -1.20265,0 -2.28504,-2.52558 -2.52557,-3.36743 -0.24053,-0.84186 -0.3608,-1.68372 -0.3608,-2.52558 0,-3.00664 1.44319,-6.37407 4.57009,-6.9754 0.48106,-0.12026 0.96212,-0.12026 1.56345,-0.12026 2.76611,0 5.89301,1.08239 7.45646,1.68371 0.12026,0 0.24053,0.12027 0.24053,0.12027 0.3608,0.12027 0.48106,0.12027 0.72159,0.12027 0.24053,0 0.48106,-0.12027 0.48106,-0.48107 0,-1.08239 -2.52557,-4.32955 -3.60796,-5.41194 -3.60796,-4.44983 -6.6146,-8.05779 -6.6146,-13.34947 0,-0.48106 0.12027,-0.96212 0.12027,-1.32292 0.36079,-5.53221 3.84849,-10.22257 6.37407,-14.07106 0.24053,-0.48106 0.36079,-0.96212 0.36079,-1.44319 0,-0.96212 -0.36079,-1.92424 -0.36079,-1.92424 0,0 -14.3116,-16.83717 -15.87505,-18.52089 -0.48106,-0.48106 -1.20265,-0.72159 -1.80398,-0.72159 -0.96212,0 -1.92425,0.60133 -1.92425,1.92425 0,0.48106 0.12027,0.96212 0.48106,1.56345 0.3608,1.08239 5.77275,6.01327 5.77275,12.8684 0,3.60797 -1.44319,7.69699 -5.77275,12.26708 -0.96212,0.96213 -1.32292,2.04452 -1.32292,2.76611 0,1.32292 0.96213,2.28504 0.96213,2.28504 z" />
    <path
       inkscape:connector-curvature="0"
       id="path514"
       style="font-style:normal;font-variant:normal;font-weight:normal;font-stretch:normal;font-size:medium;line-height:1.25;font-family:'Bravura Text';-inkscape-font-specification:'Bravura Text, Normal';font-variant-ligatures:normal;font-variant-caps:normal;font-variant-numeric:normal;font-feature-settings:normal;text-align:start;letter-spacing:0px;word-spacing:0px;writing-mode:lr-tb;text-anchor:start;fill:#000000;fill-opacity:1;stroke:none;stroke-width:0.62638098"
       d="m 271.27945,272.34558 c -1.92425,-1.56345 -4.57009,-2.52558 -7.69699,-2.52558 -11.90629,0 -21.40726,8.77938 -21.40726,18.16009 0,5.65248 4.57009,9.01991 10.4631,9.01991 9.62124,0 21.40725,-9.01991 21.52752,-18.03982 v -79.97654 h -2.88637 z" />
    <path
       inkscape:connector-curvature="0"
       id="path516"
       style="font-style:normal;font-variant:normal;font-weight:normal;font-stretch:normal;font-size:medium;line-height:1.25;font-family:'Bravura Text';-inkscape-font-specification:'Bravura Text, Normal';font-variant-ligatures:normal;font-variant-caps:normal;font-variant-numeric:normal;font-feature-settings:normal;text-align:start;letter-spacing:0px;word-spacing:0px;writing-mode:lr-tb;text-anchor:start;fill:#000000;fill-opacity:1;stroke:none;stroke-width:0.62638098"
       d="m 273.65094,198.98364 v 12.02655 h 30.06637 v 5.893 h -30.06637 v 12.02655 h 30.06637 v 43.29557 c -1.92425,-1.56345 -4.57009,-2.52557 -7.69699,-2.52557 -11.90628,0 -21.40726,8.77938 -21.40726,18.16008 0,5.65248 4.57009,9.01991 10.4631,9.01991 9.62124,0 21.40725,-8.89964 21.52752,-18.03982 v -79.85627 z" />
    <g
       id="g241"
       transform="translate(176.89285,16.92532)">
      <path
         d="m 151.92144,280.07468 h -7.79057 v -9.29002 h 7.79057 z"
         style="font-style:normal;font-weight:normal;font-size:medium;line-height:1.25;font-family:sans-serif;letter-spacing:0px;word-spacing:0px;fill:#000000;fill-opacity:1;stroke:none;stroke-width:1.66894257"
         id="path228"
         inkscape:connector-curvature="0" />
      <path
         d="m 165.58992,280.07468 h -7.79057 v -9.29002 h 7.79057 z"
         style="font-style:normal;font-weight:normal;font-size:medium;line-height:1.25;font-family:sans-serif;letter-spacing:0px;word-spacing:0px;fill:#000000;fill-opacity:1;stroke:none;stroke-width:1.66894257"
         id="path230"
         inkscape:connector-curvature="0" />
      <path
         d="m 179.2584,280.07468 h -7.79057 v -9.29002 h 7.79057 z"
         style="font-style:normal;font-weight:normal;font-size:medium;line-height:1.25;font-family:sans-serif;letter-spacing:0px;word-spacing:0px;fill:#000000;fill-opacity:1;stroke:none;stroke-width:1.66894257"
         id="path232"
         inkscape:connector-curvature="0" />
    </g>
    <g
       aria-label=","
       style="font-style:normal;font-weight:normal;font-size:76.76551819px;line-height:1.25;font-family:sans-serif;letter-spacing:0px;word-spacing:0px;fill:#000000;fill-opacity:1;stroke:none;stroke-width:1.91913795"
       id="text283"
       transform="matrix(0.37839078,0,0,0.37839078,72.284899,242.53376)">
      <path
         d="m 240.56434,119.39031 -10.57025,24.55147 h -5.47254 l 6.52207,-24.55147 z"
         style="stroke-width:1.91913795"
         id="path285"
         inkscape:connector-curvature="0" />
    </g>
  </g>
</svg>
