<?xml version="1.0" encoding="UTF-8" standalone="no"?>
<!-- Created with Inkscape (http://www.inkscape.org/) -->

<svg
   xmlns:dc="http://purl.org/dc/elements/1.1/"
   xmlns:cc="http://creativecommons.org/ns#"
   xmlns:rdf="http://www.w3.org/1999/02/22-rdf-syntax-ns#"
   xmlns:svg="http://www.w3.org/2000/svg"
   xmlns="http://www.w3.org/2000/svg"
   xmlns:sodipodi="http://sodipodi.sourceforge.net/DTD/sodipodi-0.dtd"
   xmlns:inkscape="http://www.inkscape.org/namespaces/inkscape"
   width="417.55707"
   height="449.38788"
   viewBox="0 0 110.47863 118.90053"
   version="1.1"
   id="svg8"
   inkscape:version="0.92.2 5c3e80d, 2017-08-06"
   sodipodi:docname="grouped-8-8-rest.svg">
  <defs
     id="defs2" />
  <sodipodi:namedview
     id="base"
     pagecolor="#ffffff"
     bordercolor="#666666"
     borderopacity="1.0"
     inkscape:pageopacity="0.0"
     inkscape:pageshadow="2"
     inkscape:zoom="1.4142136"
     inkscape:cx="244.06608"
     inkscape:cy="199.27445"
     inkscape:document-units="mm"
     inkscape:current-layer="text22"
     showgrid="false"
     units="px"
     fit-margin-top="0"
     fit-margin-left="0"
     fit-margin-right="0"
     fit-margin-bottom="0"
     inkscape:window-width="1680"
     inkscape:window-height="1005"
     inkscape:window-x="0"
     inkscape:window-y="1"
     inkscape:window-maximized="1" />
  <metadata
     id="metadata5">
    <rdf:RDF>
      <cc:Work
         rdf:about="">
        <dc:format>image/svg+xml</dc:format>
        <dc:type
           rdf:resource="http://purl.org/dc/dcmitype/StillImage" />
        <dc:title></dc:title>
      </cc:Work>
    </rdf:RDF>
  </metadata>
  <g
     inkscape:label="Layer 1"
     inkscape:groupmode="layer"
     id="layer1"
     transform="translate(-3.1942299e-6,-178.09938)">
    <text
       xml:space="preserve"
       style="font-style:normal;font-variant:normal;font-weight:normal;font-stretch:normal;font-size:10.58333302px;line-height:1.25;font-family:'Bravura Text';-inkscape-font-specification:'Bravura Text, Normal';font-variant-ligatures:normal;font-variant-caps:normal;font-variant-numeric:normal;font-feature-settings:normal;text-align:start;letter-spacing:0px;word-spacing:0px;writing-mode:lr-tb;text-anchor:start;fill:#000000;fill-opacity:1;stroke:none;stroke-width:0.26458332"
       x="36.777084"
       y="111.2625"
       id="text12"><tspan
         sodipodi:role="line"
         id="tspan14"
         x="36.777084"
         y="121.05208" /></text>
    <text
       xml:space="preserve"
       style="font-style:normal;font-variant:normal;font-weight:normal;font-stretch:normal;font-size:10.58333302px;line-height:1.25;font-family:'Bravura Text';-inkscape-font-specification:'Bravura Text, Normal';font-variant-ligatures:normal;font-variant-caps:normal;font-variant-numeric:normal;font-feature-settings:normal;text-align:start;letter-spacing:0px;word-spacing:0px;writing-mode:lr-tb;text-anchor:start;fill:#000000;fill-opacity:1;stroke:none;stroke-width:0.26458332"
       x="66.410416"
       y="130.04791"
       id="text18"><tspan
         sodipodi:role="line"
         id="tspan16"
         x="66.410416"
         y="139.83749"
         style="stroke-width:0.26458332" /></text>
    <g
       aria-label=""
       style="font-style:normal;font-variant:normal;font-weight:normal;font-stretch:normal;font-size:360.46774292px;line-height:1.25;font-family:'Bravura Text';-inkscape-font-specification:'Bravura Text, Normal';font-variant-ligatures:normal;font-variant-caps:normal;font-variant-numeric:normal;font-feature-settings:normal;text-align:start;letter-spacing:0px;word-spacing:0px;writing-mode:lr-tb;text-anchor:start;fill:#000000;fill-opacity:1;stroke:none;stroke-width:9.011693"
       id="text22">
      <g
         aria-label=" "
         style="font-style:normal;font-variant:normal;font-weight:normal;font-stretch:normal;font-size:10.58333302px;line-height:1.25;font-family:'Bravura Text';-inkscape-font-specification:'Bravura Text, Normal';font-variant-ligatures:normal;font-variant-caps:normal;font-variant-numeric:normal;font-feature-settings:normal;text-align:start;letter-spacing:0px;word-spacing:0px;writing-mode:lr-tb;text-anchor:start;fill:#000000;fill-opacity:1;stroke:none;stroke-width:2.38434362"
         id="text4293"
         transform="matrix(13.904947,0,0,13.904333,-208.11659,-2895.4341)">
        <path
           id="path4297"
           style="stroke-width:2.38434362"
           d="m 21.949282,223.61305 c 0,-0.30692 -0.254,-0.56092 -0.560917,-0.56092 -0.3175,0 -0.5715,0.254 -0.5715,0.56092 0,0.17992 0.105834,0.33867 0.232834,0.43392 0.07408,0.0529 0.148166,0.0952 0.232833,0.11641 0.0635,0.0106 0.148167,0.0317 0.22225,0.0317 0.116417,0 0.232833,-0.0317 0.328083,-0.0635 0.116417,-0.0317 0.1905,-0.0635 0.306917,-0.127 0.01058,-0.0106 0.03175,-0.0106 0.04233,-0.0106 0.03175,0 0.04233,0.0423 0.04233,0.0847 0,0.0212 0,0.0529 -0.01058,0.0847 -0.02117,0.127 -0.635,1.82034 -0.783166,2.37067 0,0.10583 0.1905,0.11642 0.243416,0.11642 0.09525,0 0.211667,-0.0212 0.296334,-0.0847 0.02117,-0.0212 0.85725,-2.99508 0.85725,-2.99508 0.03175,-0.14817 0.07408,-0.28575 0.08467,-0.32809 0,-0.0847 -0.08467,-0.127 -0.105833,-0.13758 -0.02117,0 -0.04233,0 -0.09525,0.0423 -0.05292,0.0423 -0.47625,0.55034 -0.762,0.55034 z m -3.161605,-0.20436 c -0.433917,-0.66675 -0.79375,-1.36525 -0.92075,-2.18016 -0.03175,-0.13759 -0.09525,-0.17992 -0.254,-0.17992 -0.04233,0 -0.08467,0.0106 -0.08467,0.0741 v 0.0106 c 0,0 0,0.0212 0,0.0423 v 1.98967 c 0,0 0,0 0,0 v 4.27566 c -0.169333,-0.14816 -0.402167,-0.22225 -0.677333,-0.22225 -1.04775,0 -1.883834,0.77259 -1.883834,1.5875 0,0.49742 0.402167,0.79375 0.92075,0.79375 0.846667,0 1.894417,-0.78316 1.894417,-1.5875 v -4.75191 c 0.518583,0.32808 1.143,1.25941 1.407583,1.87325 0.127,0.28575 0.201084,0.77258 0.201084,1.27 0,0.381 -0.05292,0.78316 -0.201084,1.16416 -0.01058,0.0423 -0.02117,0.0847 -0.02117,0.127 0,0.127 0.08467,0.21167 0.137583,0.24342 l 0.01058,0.0106 c 0.07408,0 0.179917,-0.0317 0.22225,-0.16933 0,0 0.22225,-0.80433 0.22225,-1.47108 0,-1.05834 -0.4445,-2.05317 -0.973666,-2.89984 z" />
      </g>
    </g>
  </g>
</svg>
