<?xml version="1.0" encoding="UTF-8" standalone="no"?>
<!-- Created with Inkscape (http://www.inkscape.org/) -->

<svg
   xmlns:dc="http://purl.org/dc/elements/1.1/"
   xmlns:cc="http://creativecommons.org/ns#"
   xmlns:rdf="http://www.w3.org/1999/02/22-rdf-syntax-ns#"
   xmlns:svg="http://www.w3.org/2000/svg"
   xmlns="http://www.w3.org/2000/svg"
   xmlns:sodipodi="http://sodipodi.sourceforge.net/DTD/sodipodi-0.dtd"
   xmlns:inkscape="http://www.inkscape.org/namespaces/inkscape"
   width="255.50151mm"
   height="132.29167mm"
   viewBox="0 0 255.50151 132.29167"
   version="1.1"
   id="svg94"
   inkscape:version="0.92.2 5c3e80d, 2017-08-06"
   sodipodi:docname="eqe.svg">
  <defs
     id="defs88" />
  <sodipodi:namedview
     id="base"
     pagecolor="#ffffff"
     bordercolor="#666666"
     borderopacity="1.0"
     inkscape:pageopacity="0.0"
     inkscape:pageshadow="2"
     inkscape:zoom="0.35"
     inkscape:cx="905.71428"
     inkscape:cy="102.85715"
     inkscape:document-units="mm"
     inkscape:current-layer="layer1"
     showgrid="false"
     fit-margin-top="0"
     fit-margin-left="0"
     fit-margin-right="0"
     fit-margin-bottom="0"
     inkscape:window-width="1680"
     inkscape:window-height="1005"
     inkscape:window-x="0"
     inkscape:window-y="1"
     inkscape:window-maximized="1" />
  <metadata
     id="metadata91">
    <rdf:RDF>
      <cc:Work
         rdf:about="">
        <dc:format>image/svg+xml</dc:format>
        <dc:type
           rdf:resource="http://purl.org/dc/dcmitype/StillImage" />
        <dc:title></dc:title>
      </cc:Work>
    </rdf:RDF>
  </metadata>
  <g
     inkscape:label="Layer 1"
     inkscape:groupmode="layer"
     id="layer1"
     transform="translate(-9.0826125e-7,-164.70834)">
    <text
       xml:space="preserve"
       style="font-style:normal;font-variant:normal;font-weight:normal;font-stretch:normal;font-size:10.58333302px;line-height:1.25;font-family:'Bravura Text';-inkscape-font-specification:'Bravura Text, Normal';font-variant-ligatures:normal;font-variant-caps:normal;font-variant-numeric:normal;font-feature-settings:normal;text-align:start;letter-spacing:0px;word-spacing:0px;writing-mode:lr-tb;text-anchor:start;fill:#000000;fill-opacity:1;stroke:none;stroke-width:0.26458332"
       x="16.630953"
       y="117.83928"
       id="text98"><tspan
         sodipodi:role="line"
         id="tspan100"
         x="16.630953"
         y="127.62886"></tspan></text>
    <text
       xml:space="preserve"
       style="font-style:normal;font-variant:normal;font-weight:normal;font-stretch:normal;font-size:50.79999924px;line-height:1.25;font-family:'Bravura Text';-inkscape-font-specification:'Bravura Text';letter-spacing:0px;word-spacing:0px;fill:#000000;fill-opacity:1;stroke:none;stroke-width:0.26458332"
       x="16.630953"
       y="111.03571"
       id="text104"><tspan
         sodipodi:role="line"
         id="tspan102"
         x="16.630953"
         y="158.02571"
         style="font-style:normal;font-variant:normal;font-weight:normal;font-stretch:normal;font-size:50.79999924px;font-family:'Bravura Text';-inkscape-font-specification:'Bravura Text';stroke-width:0.26458332" /></text>
    <g
       aria-label="    "
       style="font-style:normal;font-variant:normal;font-weight:normal;font-stretch:normal;font-size:120.26515198px;line-height:1.25;font-family:'Bravura Text';-inkscape-font-specification:'Bravura Text, Normal';font-variant-ligatures:normal;font-variant-caps:normal;font-variant-numeric:normal;font-feature-settings:normal;text-align:start;letter-spacing:0px;word-spacing:0px;writing-mode:lr-tb;text-anchor:start;fill:#000000;fill-opacity:1;stroke:none;stroke-width:0.62638098"
       id="text108"
       transform="matrix(1.3530135,0,0,1.3530135,-3.2062849e-7,-79.623348)">
      <path
         d="m 43.415721,207.64299 c -4.930871,-7.5767 -9.019887,-15.5142 -10.463068,-24.77462 -0.360796,-1.56345 -1.082387,-2.04451 -2.886364,-2.04451 -0.481061,0 -0.962121,0.12027 -0.962121,0.84186 v 0.12026 c 0,0 0,0.24053 0,0.48106 v 22.60985 c 0,0 0,0 0,0 v 48.58712 c -1.924243,-1.68371 -4.570076,-2.52556 -7.69697,-2.52556 -11.9062501,0 -21.40719709173874,8.77935 -21.40719709173874,18.03977 0,5.65246 4.57007579173874,9.01989 10.46306809173874,9.01989 9.621212,0 21.527462,-8.89963 21.527462,-18.03978 v -53.99905 c 5.892993,3.72822 12.988637,14.31155 15.995266,21.28693 1.443181,3.24716 2.285037,8.77936 2.285037,14.43182 0,4.32955 -0.601325,8.89962 -2.285037,13.22917 -0.120266,0.48106 -0.240531,0.96212 -0.240531,1.44318 0,1.44318 0.962121,2.4053 1.563447,2.7661 l 0.120265,0.12026 c 0.841856,0 2.044508,-0.36079 2.525569,-1.92424 0,0 2.525568,-9.14015 2.525568,-16.71686 0,-12.02651 -5.051137,-23.33144 -11.064394,-32.95265 z"
         style="stroke-width:0.62638098"
         id="path124"
         inkscape:connector-curvature="0" />
      <path
         d="m 83.599315,253.70455 c -1.924242,-1.68372 -4.570075,-2.52557 -7.696969,-2.52557 -11.90625,0 -21.407197,8.77935 -21.407197,18.16003 0,5.65247 4.570075,9.01989 10.463068,9.01989 9.621212,0 21.527462,-9.01989 21.527462,-18.16004 v -79.61553 h -2.886364 z"
         style="stroke-width:0.62638098"
         id="path126"
         inkscape:connector-curvature="0" />
      <path
         d="m 177.77445,207.64299 c -4.93087,-7.5767 -9.01988,-15.5142 -10.46306,-24.77462 -0.3608,-1.56345 -1.08239,-2.04451 -2.88637,-2.04451 -0.48106,0 -0.96212,0.12027 -0.96212,0.84186 v 0.12026 c 0,0 0,0.24053 0,0.48106 v 22.60985 c 0,0 0,0 0,0 v 48.58712 c -1.92424,-1.68371 -4.57007,-2.52556 -7.69697,-2.52556 -11.90625,0 -21.40719,8.77935 -21.40719,18.03977 0,5.65246 4.57007,9.01989 10.46306,9.01989 9.62122,0 21.52747,-8.89963 21.52747,-18.03978 v -53.99905 c 5.89299,3.72822 12.98863,14.31155 15.99526,21.28693 1.44318,3.24716 2.28504,8.77936 2.28504,14.43182 0,4.32955 -0.60133,8.89962 -2.28504,13.22917 -0.12026,0.48106 -0.24053,0.96212 -0.24053,1.44318 0,1.44318 0.96212,2.4053 1.56345,2.7661 l 0.12026,0.12026 c 0.84186,0 2.04451,-0.36079 2.52557,-1.92424 0,0 2.52557,-9.14015 2.52557,-16.71686 0,-12.02651 -5.05114,-23.33144 -11.0644,-32.95265 z"
         style="stroke-width:0.62638098"
         id="path128"
         inkscape:connector-curvature="0" />
    </g>
  </g>
</svg>
