<?xml version="1.0" encoding="UTF-8" standalone="no"?>
<!-- Created with Inkscape (http://www.inkscape.org/) -->

<svg
   xmlns:dc="http://purl.org/dc/elements/1.1/"
   xmlns:cc="http://creativecommons.org/ns#"
   xmlns:rdf="http://www.w3.org/1999/02/22-rdf-syntax-ns#"
   xmlns:svg="http://www.w3.org/2000/svg"
   xmlns="http://www.w3.org/2000/svg"
   xmlns:sodipodi="http://sodipodi.sourceforge.net/DTD/sodipodi-0.dtd"
   xmlns:inkscape="http://www.inkscape.org/namespaces/inkscape"
   width="500"
   height="379.14694"
   viewBox="0 0 132.29165 100.31596"
   version="1.1"
   id="svg8"
   inkscape:version="0.92.2 5c3e80d, 2017-08-06"
   sodipodi:docname="beamed-16-16-16-16.svg">
  <defs
     id="defs2" />
  <sodipodi:namedview
     id="base"
     pagecolor="#ffffff"
     bordercolor="#666666"
     borderopacity="1.0"
     inkscape:pageopacity="0.0"
     inkscape:pageshadow="2"
     inkscape:zoom="1"
     inkscape:cx="271.76655"
     inkscape:cy="249.83618"
     inkscape:document-units="mm"
     inkscape:current-layer="text22"
     showgrid="false"
     units="px"
     fit-margin-top="0"
     fit-margin-left="0"
     fit-margin-right="0"
     fit-margin-bottom="0"
     inkscape:window-width="1680"
     inkscape:window-height="1005"
     inkscape:window-x="0"
     inkscape:window-y="1"
     inkscape:window-maximized="1" />
  <metadata
     id="metadata5">
    <rdf:RDF>
      <cc:Work
         rdf:about="">
        <dc:format>image/svg+xml</dc:format>
        <dc:type
           rdf:resource="http://purl.org/dc/dcmitype/StillImage" />
        <dc:title></dc:title>
      </cc:Work>
    </rdf:RDF>
  </metadata>
  <g
     inkscape:label="Layer 1"
     inkscape:groupmode="layer"
     id="layer1"
     transform="translate(2.5329589e-6,-196.68398)">
    <text
       xml:space="preserve"
       style="font-style:normal;font-variant:normal;font-weight:normal;font-stretch:normal;font-size:10.58333302px;line-height:1.25;font-family:'Bravura Text';-inkscape-font-specification:'Bravura Text, Normal';font-variant-ligatures:normal;font-variant-caps:normal;font-variant-numeric:normal;font-feature-settings:normal;text-align:start;letter-spacing:0px;word-spacing:0px;writing-mode:lr-tb;text-anchor:start;fill:#000000;fill-opacity:1;stroke:none;stroke-width:0.26458332"
       x="36.777084"
       y="111.2625"
       id="text12"><tspan
         sodipodi:role="line"
         id="tspan14"
         x="36.777084"
         y="121.05208"></tspan></text>
    <text
       xml:space="preserve"
       style="font-style:normal;font-variant:normal;font-weight:normal;font-stretch:normal;font-size:10.58333302px;line-height:1.25;font-family:'Bravura Text';-inkscape-font-specification:'Bravura Text, Normal';font-variant-ligatures:normal;font-variant-caps:normal;font-variant-numeric:normal;font-feature-settings:normal;text-align:start;letter-spacing:0px;word-spacing:0px;writing-mode:lr-tb;text-anchor:start;fill:#000000;fill-opacity:1;stroke:none;stroke-width:0.26458332"
       x="66.410416"
       y="130.04791"
       id="text18"><tspan
         sodipodi:role="line"
         id="tspan16"
         x="66.410416"
         y="139.83749"
         style="stroke-width:0.26458332" /></text>
    <g
       aria-label=""
       style="font-style:normal;font-variant:normal;font-weight:normal;font-stretch:normal;font-size:360.46774292px;line-height:1.25;font-family:'Bravura Text';-inkscape-font-specification:'Bravura Text, Normal';font-variant-ligatures:normal;font-variant-caps:normal;font-variant-numeric:normal;font-feature-settings:normal;text-align:start;letter-spacing:0px;word-spacing:0px;writing-mode:lr-tb;text-anchor:start;fill:#000000;fill-opacity:1;stroke:none;stroke-width:9.011693"
       id="text22">
      <g
         aria-label=""
         style="font-style:normal;font-variant:normal;font-weight:normal;font-stretch:normal;font-size:123.08706665px;line-height:1.25;font-family:'Bravura Text';-inkscape-font-specification:'Bravura Text, Normal';font-variant-ligatures:normal;font-variant-caps:normal;font-variant-numeric:normal;font-feature-settings:normal;text-align:start;letter-spacing:0px;word-spacing:0px;writing-mode:lr-tb;text-anchor:start;fill:#000000;fill-opacity:1;stroke:none;stroke-width:27.73056984"
         id="text3983">
        <path
           id="path3991"
           style="stroke-width:27.73056984"
           d="m 98.565809,196.68398 v 12.30871 h 30.771771 v 6.03126 H 98.565809 v 12.30871 H 129.33758 V 271.644 c -1.9694,-1.60013 -4.67731,-2.58482 -7.87758,-2.58482 -12.18562,0 -21.909495,8.98535 -21.909495,18.58614 0,5.78509 4.677305,9.23153 10.708575,9.23153 9.84697,0 21.9095,-9.10844 22.03258,-18.46306 v -81.72981 z m -33.175812,0 v 12.30871 h 30.771767 v 6.03126 H 65.389997 v 12.30871 H 96.161764 V 271.644 c -1.969394,-1.60013 -4.677309,-2.58482 -7.877573,-2.58482 -12.185619,0 -21.909498,8.98535 -21.909498,18.58614 0,5.78509 4.677309,9.23153 10.708575,9.23153 9.846966,0 21.909498,-9.10844 22.032585,-18.46306 v -81.72981 z m -33.175808,0 v 12.30871 h 30.771767 v 6.03126 H 32.214189 v 12.30871 H 62.985956 V 271.644 c -1.969393,-1.60013 -4.677309,-2.58482 -7.877573,-2.58482 -12.185619,0 -21.909498,8.98535 -21.909498,18.58614 0,5.78509 4.677309,9.23153 10.708575,9.23153 9.846966,0 21.909498,-9.10844 22.032585,-18.46306 v -81.72981 z m -2.427121,75.08311 c -1.969393,-1.60013 -4.677309,-2.58483 -7.877573,-2.58483 -12.1856193,0 -21.9094975329589,8.98536 -21.9094975329589,18.58615 0,5.78509 4.6773085329589,9.23153 10.7085745329589,9.23153 9.846966,0 21.909498,-9.23153 22.032585,-18.46306 v -81.8529 h -2.954089 z" />
      </g>
    </g>
  </g>
</svg>
