<?xml version="1.0" encoding="UTF-8" standalone="no"?>
<!-- Created with Inkscape (http://www.inkscape.org/) -->

<svg
   xmlns:dc="http://purl.org/dc/elements/1.1/"
   xmlns:cc="http://creativecommons.org/ns#"
   xmlns:rdf="http://www.w3.org/1999/02/22-rdf-syntax-ns#"
   xmlns:svg="http://www.w3.org/2000/svg"
   xmlns="http://www.w3.org/2000/svg"
   xmlns:sodipodi="http://sodipodi.sourceforge.net/DTD/sodipodi-0.dtd"
   xmlns:inkscape="http://www.inkscape.org/namespaces/inkscape"
   width="683.82788"
   height="500.00003"
   viewBox="0 0 180.92944 132.29166"
   version="1.1"
   id="svg8"
   inkscape:version="0.92.2 5c3e80d, 2017-08-06"
   sodipodi:docname="triplet-4-4-4.svg">
  <defs
     id="defs2" />
  <sodipodi:namedview
     id="base"
     pagecolor="#ffffff"
     bordercolor="#666666"
     borderopacity="1.0"
     inkscape:pageopacity="0.0"
     inkscape:pageshadow="2"
     inkscape:zoom="1"
     inkscape:cx="280.76016"
     inkscape:cy="267.41943"
     inkscape:document-units="mm"
     inkscape:current-layer="text22"
     showgrid="false"
     units="px"
     fit-margin-top="0"
     fit-margin-left="0"
     fit-margin-right="0"
     fit-margin-bottom="0"
     inkscape:window-width="1680"
     inkscape:window-height="1005"
     inkscape:window-x="0"
     inkscape:window-y="1"
     inkscape:window-maximized="1" />
  <metadata
     id="metadata5">
    <rdf:RDF>
      <cc:Work
         rdf:about="">
        <dc:format>image/svg+xml</dc:format>
        <dc:type
           rdf:resource="http://purl.org/dc/dcmitype/StillImage" />
        <dc:title></dc:title>
      </cc:Work>
    </rdf:RDF>
  </metadata>
  <g
     inkscape:label="Layer 1"
     inkscape:groupmode="layer"
     id="layer1"
     transform="translate(-6.5449432e-5,-164.70839)">
    <text
       xml:space="preserve"
       style="font-style:normal;font-variant:normal;font-weight:normal;font-stretch:normal;font-size:10.58333302px;line-height:1.25;font-family:'Bravura Text';-inkscape-font-specification:'Bravura Text, Normal';font-variant-ligatures:normal;font-variant-caps:normal;font-variant-numeric:normal;font-feature-settings:normal;text-align:start;letter-spacing:0px;word-spacing:0px;writing-mode:lr-tb;text-anchor:start;fill:#000000;fill-opacity:1;stroke:none;stroke-width:0.26458332"
       x="36.777084"
       y="111.2625"
       id="text12"><tspan
         sodipodi:role="line"
         id="tspan14"
         x="36.777084"
         y="121.05208" /></text>
    <text
       xml:space="preserve"
       style="font-style:normal;font-variant:normal;font-weight:normal;font-stretch:normal;font-size:10.58333302px;line-height:1.25;font-family:'Bravura Text';-inkscape-font-specification:'Bravura Text, Normal';font-variant-ligatures:normal;font-variant-caps:normal;font-variant-numeric:normal;font-feature-settings:normal;text-align:start;letter-spacing:0px;word-spacing:0px;writing-mode:lr-tb;text-anchor:start;fill:#000000;fill-opacity:1;stroke:none;stroke-width:0.26458332"
       x="66.410416"
       y="130.04791"
       id="text18"><tspan
         sodipodi:role="line"
         id="tspan16"
         x="66.410416"
         y="139.83749"
         style="stroke-width:0.26458332" /></text>
    <g
       aria-label=""
       style="font-style:normal;font-variant:normal;font-weight:normal;font-stretch:normal;font-size:360.46774292px;line-height:1.25;font-family:'Bravura Text';-inkscape-font-specification:'Bravura Text, Normal';font-variant-ligatures:normal;font-variant-caps:normal;font-variant-numeric:normal;font-feature-settings:normal;text-align:start;letter-spacing:0px;word-spacing:0px;writing-mode:lr-tb;text-anchor:start;fill:#000000;fill-opacity:1;stroke:none;stroke-width:9.011693"
       id="text22">
      <g
         aria-label="     "
         style="font-style:normal;font-variant:normal;font-weight:normal;font-stretch:normal;font-size:10.58333302px;line-height:1.25;font-family:'Bravura Text';-inkscape-font-specification:'Bravura Text, Normal';font-variant-ligatures:normal;font-variant-caps:normal;font-variant-numeric:normal;font-feature-settings:normal;text-align:start;letter-spacing:0px;word-spacing:0px;writing-mode:lr-tb;text-anchor:start;fill:#000000;fill-opacity:1;stroke:none;stroke-width:2.38434362"
         id="text4452"
         transform="matrix(10.656437,0,0,10.656497,-222.74223,-2175.8406)">
        <path
           id="path4464"
           style="stroke-width:2.38434362"
           d="m 37.880555,220.76821 -6.186821,-2e-5 v 0.24342 l 5.953988,2e-5 v 1.50283 h 0.232833 z m -0.754004,9.11225 c -0.169334,-0.13758 -0.402167,-0.22225 -0.677334,-0.22225 -1.04775,0 -1.883833,0.77259 -1.883833,1.59809 0,0.49741 0.402167,0.79375 0.92075,0.79375 0.846667,0 1.883833,-0.79375 1.894416,-1.5875 v -7.03792 h -0.253999 z m -6.53339,-9.80016 c -0.01058,-0.0212 -0.01058,-0.0423 -0.01058,-0.0741 0,-0.11641 0.08467,-0.17991 0.179917,-0.17991 h 0.05292 c 0.105834,0.0317 0.148167,0.127 0.148167,0.254 0,0.0529 -0.01058,0.127 -0.04233,0.1905 -0.07408,0.23283 -0.328084,0.32808 -0.433917,0.32808 h -0.28575 c -0.08467,0 -0.1905,0.0317 -0.232833,0.13758 -0.01058,0.0212 -0.01058,0.0318 -0.01058,0.0529 0,0.0635 0.07408,0.0952 0.1905,0.0952 h 0.179917 c 0.148167,0 0.211667,0.13758 0.211667,0.29633 0,0.0847 -0.03175,0.16934 -0.0635,0.254 -0.137584,0.30692 -0.328084,0.381 -0.465667,0.381 -0.105833,0 -0.179917,-0.0317 -0.201083,-0.0423 -0.02117,-0.0212 -0.03175,-0.0317 -0.03175,-0.0423 0,-0.0318 0.02117,-0.0529 0.04233,-0.0741 0.08467,-0.0423 0.148167,-0.127 0.148167,-0.23283 0,-0.14817 -0.116417,-0.26458 -0.264584,-0.26458 -0.116416,0 -0.22225,0.0741 -0.264583,0.1905 -0.01058,0.0423 -0.02117,0.11641 -0.02117,0.16933 0,0.21167 0.148167,0.4445 0.709084,0.4445 0.645583,0 0.8255,-0.34925 0.867833,-0.58208 0.01058,-0.0317 0.01058,-0.0635 0.01058,-0.0952 0,-0.1905 -0.127,-0.32809 -0.137583,-0.34925 -0.01058,-0.0106 -0.02117,-0.0106 -0.02117,-0.0317 0,-0.0212 0.01058,-0.0529 0.05292,-0.0635 0.423333,-0.20109 0.508,-0.42334 0.508,-0.635 0,-0.22225 -0.22225,-0.5715 -0.624417,-0.5715 -0.41275,0 -0.709083,0.1905 -0.709083,0.48683 0,0.14817 0.116417,0.254 0.254,0.254 0.148167,0 0.254,-0.10583 0.264583,-0.24342 z m -0.370581,9.80016 c -0.169334,-0.13758 -0.402167,-0.22225 -0.677334,-0.22225 -1.047749,0 -1.883833,0.77259 -1.883833,1.59809 0,0.49741 0.402167,0.79375 0.92075,0.79375 0.846667,0 1.883833,-0.79375 1.894417,-1.5875 v -7.03792 h -0.254 z m -7.123906,-8.86883 5.8737,-2e-5 v -0.24342 l -6.106534,2e-5 v 1.74625 h 0.232834 z m 0.364628,8.86883 c -0.169333,-0.13758 -0.402166,-0.22225 -0.677333,-0.22225 -1.04775,0 -1.883833,0.77259 -1.883833,1.59809 0,0.49741 0.402167,0.79375 0.92075,0.79375 0.846666,0 1.883833,-0.79375 1.894416,-1.5875 v -7.03792 h -0.254 z"
           inkscape:connector-curvature="0" />
      </g>
    </g>
  </g>
</svg>
