<?xml version="1.0" encoding="UTF-8" standalone="no"?>
<!-- Created with Inkscape (http://www.inkscape.org/) -->

<svg
   xmlns:dc="http://purl.org/dc/elements/1.1/"
   xmlns:cc="http://creativecommons.org/ns#"
   xmlns:rdf="http://www.w3.org/1999/02/22-rdf-syntax-ns#"
   xmlns:svg="http://www.w3.org/2000/svg"
   xmlns="http://www.w3.org/2000/svg"
   xmlns:sodipodi="http://sodipodi.sourceforge.net/DTD/sodipodi-0.dtd"
   xmlns:inkscape="http://www.inkscape.org/namespaces/inkscape"
   width="500"
   height="407.3273"
   viewBox="0 0 132.29165 107.77201"
   version="1.1"
   id="svg8"
   inkscape:version="0.92.2 5c3e80d, 2017-08-06"
   sodipodi:docname="n8-n4d.svg">
  <defs
     id="defs2" />
  <sodipodi:namedview
     id="base"
     pagecolor="#ffffff"
     bordercolor="#666666"
     borderopacity="1.0"
     inkscape:pageopacity="0.0"
     inkscape:pageshadow="2"
     inkscape:zoom="1.4142136"
     inkscape:cx="183.80046"
     inkscape:cy="241.13734"
     inkscape:document-units="mm"
     inkscape:current-layer="text22"
     showgrid="false"
     units="px"
     fit-margin-top="0"
     fit-margin-left="0"
     fit-margin-right="0"
     fit-margin-bottom="0"
     inkscape:window-width="1680"
     inkscape:window-height="1005"
     inkscape:window-x="0"
     inkscape:window-y="1"
     inkscape:window-maximized="1" />
  <metadata
     id="metadata5">
    <rdf:RDF>
      <cc:Work
         rdf:about="">
        <dc:format>image/svg+xml</dc:format>
        <dc:type
           rdf:resource="http://purl.org/dc/dcmitype/StillImage" />
        <dc:title></dc:title>
      </cc:Work>
    </rdf:RDF>
  </metadata>
  <g
     inkscape:label="Layer 1"
     inkscape:groupmode="layer"
     id="layer1"
     transform="translate(5.21984e-6,-189.22787)">
    <text
       xml:space="preserve"
       style="font-style:normal;font-variant:normal;font-weight:normal;font-stretch:normal;font-size:10.58333302px;line-height:1.25;font-family:'Bravura Text';-inkscape-font-specification:'Bravura Text, Normal';font-variant-ligatures:normal;font-variant-caps:normal;font-variant-numeric:normal;font-feature-settings:normal;text-align:start;letter-spacing:0px;word-spacing:0px;writing-mode:lr-tb;text-anchor:start;fill:#000000;fill-opacity:1;stroke:none;stroke-width:0.26458332"
       x="36.777084"
       y="111.2625"
       id="text12"><tspan
         sodipodi:role="line"
         id="tspan14"
         x="36.777084"
         y="121.05208" /></text>
    <text
       xml:space="preserve"
       style="font-style:normal;font-variant:normal;font-weight:normal;font-stretch:normal;font-size:10.58333302px;line-height:1.25;font-family:'Bravura Text';-inkscape-font-specification:'Bravura Text, Normal';font-variant-ligatures:normal;font-variant-caps:normal;font-variant-numeric:normal;font-feature-settings:normal;text-align:start;letter-spacing:0px;word-spacing:0px;writing-mode:lr-tb;text-anchor:start;fill:#000000;fill-opacity:1;stroke:none;stroke-width:0.26458332"
       x="66.410416"
       y="130.04791"
       id="text18"><tspan
         sodipodi:role="line"
         id="tspan16"
         x="66.410416"
         y="139.83749"
         style="stroke-width:0.26458332" /></text>
    <g
       aria-label=""
       style="font-style:normal;font-variant:normal;font-weight:normal;font-stretch:normal;font-size:360.46774292px;line-height:1.25;font-family:'Bravura Text';-inkscape-font-specification:'Bravura Text, Normal';font-variant-ligatures:normal;font-variant-caps:normal;font-variant-numeric:normal;font-feature-settings:normal;text-align:start;letter-spacing:0px;word-spacing:0px;writing-mode:lr-tb;text-anchor:start;fill:#000000;fill-opacity:1;stroke:none;stroke-width:9.011693"
       id="text22">
      <g
         aria-label="  "
         style="font-style:normal;font-variant:normal;font-weight:normal;font-stretch:normal;font-size:10.58333302px;line-height:1.25;font-family:'Bravura Text';-inkscape-font-specification:'Bravura Text, Normal';font-variant-ligatures:normal;font-variant-caps:normal;font-variant-numeric:normal;font-feature-settings:normal;text-align:start;letter-spacing:0px;word-spacing:0px;writing-mode:lr-tb;text-anchor:start;fill:#000000;fill-opacity:1;stroke:none;stroke-width:2.38434362"
         id="text4179"
         transform="matrix(12.52544,0,0,12.52544,-290.57755,-2944.4561)">
        <path
           d="m 27.019575,252.56679 c -0.433917,-0.66675 -0.79375,-1.36525 -0.92075,-2.18016 -0.03175,-0.13759 -0.09525,-0.17992 -0.254,-0.17992 -0.04233,0 -0.08467,0.0106 -0.08467,0.0741 v 0.0106 c 0,0 0,0.0212 0,0.0423 v 1.98967 c 0,0 0,0 0,0 v 4.27566 c -0.169333,-0.14816 -0.402166,-0.22225 -0.677333,-0.22225 -1.04775,0 -1.883833,0.77259 -1.883833,1.5875 0,0.49742 0.402166,0.79375 0.92075,0.79375 0.846666,0 1.894416,-0.78316 1.894416,-1.5875 v -4.75191 c 0.518584,0.32808 1.143,1.25941 1.407584,1.87325 0.127,0.28575 0.201083,0.77258 0.201083,1.27 0,0.381 -0.05292,0.78316 -0.201083,1.16416 -0.01058,0.0423 -0.02117,0.0847 -0.02117,0.127 0,0.127 0.08467,0.21167 0.137583,0.24342 l 0.01058,0.0106 c 0.07408,0 0.179916,-0.0317 0.22225,-0.16933 0,0 0.22225,-0.80433 0.22225,-1.47108 0,-1.05834 -0.4445,-2.05317 -0.973667,-2.89984 z"
           style="stroke-width:2.38434362"
           id="path4181"
           inkscape:connector-curvature="0" />
        <path
           d="m 31.60993,256.62021 c -0.169333,-0.14817 -0.402166,-0.22225 -0.677333,-0.22225 -1.04775,0 -1.883833,0.77258 -1.883833,1.59808 0,0.49742 0.402166,0.79375 0.92075,0.79375 0.846666,0 1.894416,-0.79375 1.894416,-1.59808 v -7.00617 h -0.254 z"
           style="stroke-width:2.38434362"
           id="path4183"
           inkscape:connector-curvature="0" />
        <path
           d="m 33.760827,257.59388 c 0,-0.23284 -0.1905,-0.42334 -0.423333,-0.42334 -0.232833,0 -0.423333,0.1905 -0.423333,0.42334 0,0.23283 0.1905,0.42333 0.423333,0.42333 0.232833,0 0.423333,-0.1905 0.423333,-0.42333 z"
           style="stroke-width:2.38434362"
           id="path4185"
           inkscape:connector-curvature="0" />
      </g>
    </g>
  </g>
</svg>
