<?xml version="1.0" encoding="UTF-8" standalone="no"?>
<!-- Created with Inkscape (http://www.inkscape.org/) -->

<svg
   xmlns:dc="http://purl.org/dc/elements/1.1/"
   xmlns:cc="http://creativecommons.org/ns#"
   xmlns:rdf="http://www.w3.org/1999/02/22-rdf-syntax-ns#"
   xmlns:svg="http://www.w3.org/2000/svg"
   xmlns="http://www.w3.org/2000/svg"
   xmlns:sodipodi="http://sodipodi.sourceforge.net/DTD/sodipodi-0.dtd"
   xmlns:inkscape="http://www.inkscape.org/namespaces/inkscape"
   width="370.04105"
   height="418.47949"
   viewBox="0 0 97.906685 110.72268"
   version="1.1"
   id="svg8"
   inkscape:version="0.92.2 5c3e80d, 2017-08-06"
   sodipodi:docname="n8t-n8t-n8t.svg">
  <defs
     id="defs2" />
  <sodipodi:namedview
     id="base"
     pagecolor="#ffffff"
     bordercolor="#666666"
     borderopacity="1.0"
     inkscape:pageopacity="0.0"
     inkscape:pageshadow="2"
     inkscape:zoom="1"
     inkscape:cx="226.76021"
     inkscape:cy="268.41903"
     inkscape:document-units="mm"
     inkscape:current-layer="text22"
     showgrid="false"
     units="px"
     fit-margin-top="0"
     fit-margin-left="0"
     fit-margin-right="0"
     fit-margin-bottom="0"
     inkscape:window-width="1680"
     inkscape:window-height="1005"
     inkscape:window-x="0"
     inkscape:window-y="1"
     inkscape:window-maximized="1" />
  <metadata
     id="metadata5">
    <rdf:RDF>
      <cc:Work
         rdf:about="">
        <dc:format>image/svg+xml</dc:format>
        <dc:type
           rdf:resource="http://purl.org/dc/dcmitype/StillImage" />
        <dc:title></dc:title>
      </cc:Work>
    </rdf:RDF>
  </metadata>
  <g
     inkscape:label="Layer 1"
     inkscape:groupmode="layer"
     id="layer1"
     transform="translate(-14.287553,-186.54184)">
    <text
       xml:space="preserve"
       style="font-style:normal;font-variant:normal;font-weight:normal;font-stretch:normal;font-size:10.58333302px;line-height:1.25;font-family:'Bravura Text';-inkscape-font-specification:'Bravura Text, Normal';font-variant-ligatures:normal;font-variant-caps:normal;font-variant-numeric:normal;font-feature-settings:normal;text-align:start;letter-spacing:0px;word-spacing:0px;writing-mode:lr-tb;text-anchor:start;fill:#000000;fill-opacity:1;stroke:none;stroke-width:0.26458332"
       x="36.777084"
       y="111.2625"
       id="text12"><tspan
         sodipodi:role="line"
         id="tspan14"
         x="36.777084"
         y="121.05208" /></text>
    <text
       xml:space="preserve"
       style="font-style:normal;font-variant:normal;font-weight:normal;font-stretch:normal;font-size:10.58333302px;line-height:1.25;font-family:'Bravura Text';-inkscape-font-specification:'Bravura Text, Normal';font-variant-ligatures:normal;font-variant-caps:normal;font-variant-numeric:normal;font-feature-settings:normal;text-align:start;letter-spacing:0px;word-spacing:0px;writing-mode:lr-tb;text-anchor:start;fill:#000000;fill-opacity:1;stroke:none;stroke-width:0.26458332"
       x="66.410416"
       y="130.04791"
       id="text18"><tspan
         sodipodi:role="line"
         id="tspan16"
         x="66.410416"
         y="139.83749"
         style="stroke-width:0.26458332" /></text>
    <g
       aria-label=""
       style="font-style:normal;font-variant:normal;font-weight:normal;font-stretch:normal;font-size:360.46774292px;line-height:1.25;font-family:'Bravura Text';-inkscape-font-specification:'Bravura Text, Normal';font-variant-ligatures:normal;font-variant-caps:normal;font-variant-numeric:normal;font-feature-settings:normal;text-align:start;letter-spacing:0px;word-spacing:0px;writing-mode:lr-tb;text-anchor:start;fill:#000000;fill-opacity:1;stroke:none;stroke-width:9.011693"
       id="text22">
      <path
         inkscape:connector-curvature="0"
         d="m 86.39243,220.25323 v 9.41675 c 0,0 11.63556,-0.79375 23.54181,0 v 47.9314 c -1.50668,-1.22415 -3.57836,-1.97753 -6.02671,-1.97753 -9.32255,0 -16.76176,6.87422 -16.76176,14.2193 0,4.42591 3.57836,7.06258 8.19255,7.06258 7.53338,0 16.76176,-6.96835 16.85593,-14.12516 v -62.52734 z m 0.42086,0 H 75.298977 v 9.41675 H 86.81329 Z M 76.021732,190.49626 c -0.09414,-0.18863 -0.09414,-0.37637 -0.09414,-0.65932 0,-1.03579 0.753367,-1.60079 1.600845,-1.60079 h 0.470866 c 0.941677,0.28295 1.318343,1.13001 1.318343,2.26002 0,0.47069 -0.09414,1.13002 -0.376639,1.69502 -0.659141,2.07166 -2.919189,2.91917 -3.860858,2.91917 h -2.542514 c -0.753367,0 -1.69501,0.28295 -2.071675,1.22415 -0.09414,0.18863 -0.09414,0.28206 -0.09414,0.47069 0,0.56501 0.659141,0.84707 1.69501,0.84707 h 1.600845 c 1.318344,0 1.883347,1.22415 1.883347,2.63666 0,0.75364 -0.282502,1.50675 -0.565003,2.26003 -1.22418,2.73089 -2.919189,3.39004 -4.14336,3.39004 -0.941669,0 -1.600845,-0.28206 -1.789174,-0.37638 -0.188364,-0.18863 -0.282501,-0.28294 -0.282501,-0.37637 0,-0.28206 0.188364,-0.47069 0.376639,-0.65932 0.753367,-0.37638 1.318343,-1.13002 1.318343,-2.07166 0,-1.31838 -1.035842,-2.35417 -2.354185,-2.35417 -1.035834,0 -1.977511,0.65933 -2.354177,1.69502 -0.09414,0.37638 -0.188364,1.03579 -0.188364,1.50666 0,1.88338 1.318343,3.95504 6.309208,3.95504 5.744196,0 7.345041,-3.10753 7.721707,-5.1792 0.09414,-0.28294 0.09414,-0.565 0.09414,-0.84706 0,-1.69502 -1.130006,-2.91926 -1.22417,-3.10753 -0.09414,-0.0943 -0.188364,-0.0943 -0.188364,-0.28206 0,-0.18863 0.09414,-0.47069 0.470865,-0.56501 3.766685,-1.78925 4.520026,-3.76677 4.520026,-5.65006 0,-1.97752 -1.977511,-5.08506 -5.555868,-5.08506 -3.67252,0 -6.309199,1.69502 -6.309199,4.33169 0,1.31837 1.035842,2.26002 2.260013,2.26002 1.318343,0 2.260012,-0.94165 2.354177,-2.16589 z m -25.995409,29.75697 v 9.41675 h 23.541805 v 47.9314 c -1.506682,-1.22415 -3.578357,-1.97753 -6.026707,-1.97753 -9.322552,0 -16.761758,6.87422 -16.761758,14.2193 0,4.42591 3.578357,7.06258 8.192546,7.06258 7.533379,0 16.761758,-6.96835 16.855931,-14.12516 v -62.52734 z m 0.420861,0 -11.514362,0.26458 v 9.41675 l 11.514317,-0.26458 z m -13.371176,57.70686 c -1.506672,-1.22415 -3.578348,-1.97752 -6.026698,-1.97752 -9.322552,0 -16.761757,6.87431 -16.761757,14.21939 0,4.42582 3.578347,7.06258 8.192545,7.06258 7.53337,0 16.761758,-7.06258 16.855922,-14.12516 v -62.62157 h -2.260012 z"
         style="font-style:normal;font-variant:normal;font-weight:normal;font-stretch:normal;font-size:medium;line-height:1.25;font-family:'Bravura Text';-inkscape-font-specification:'Bravura Text, Normal';font-variant-ligatures:normal;font-variant-caps:normal;font-variant-numeric:normal;font-feature-settings:normal;text-align:start;letter-spacing:0px;word-spacing:0px;writing-mode:lr-tb;text-anchor:start;fill:#000000;fill-opacity:1;stroke:none;stroke-width:21.21520424"
         id="path4426"
         sodipodi:nodetypes="ccccssscccccccccsscscsscsssscscscsscsscscscssssccccccssscccccccccssscccc" />
    </g>
  </g>
</svg>
