<?xml version="1.0" encoding="UTF-8" standalone="no"?>
<!-- Created with Inkscape (http://www.inkscape.org/) -->

<svg
   xmlns:dc="http://purl.org/dc/elements/1.1/"
   xmlns:cc="http://creativecommons.org/ns#"
   xmlns:rdf="http://www.w3.org/1999/02/22-rdf-syntax-ns#"
   xmlns:svg="http://www.w3.org/2000/svg"
   xmlns="http://www.w3.org/2000/svg"
   xmlns:sodipodi="http://sodipodi.sourceforge.net/DTD/sodipodi-0.dtd"
   xmlns:inkscape="http://www.inkscape.org/namespaces/inkscape"
   width="179.76588"
   height="500"
   viewBox="0 0 47.563051 132.29167"
   version="1.1"
   id="svg8"
   inkscape:version="0.92.2 5c3e80d, 2017-08-06"
   sodipodi:docname="quarter-rest.svg">
  <defs
     id="defs2" />
  <sodipodi:namedview
     id="base"
     pagecolor="#ffffff"
     bordercolor="#666666"
     borderopacity="1.0"
     inkscape:pageopacity="0.0"
     inkscape:pageshadow="2"
     inkscape:zoom="1"
     inkscape:cx="181.76654"
     inkscape:cy="151.83632"
     inkscape:document-units="mm"
     inkscape:current-layer="text22"
     showgrid="false"
     units="px"
     fit-margin-top="0"
     fit-margin-left="0"
     fit-margin-right="0"
     fit-margin-bottom="0"
     inkscape:window-width="1680"
     inkscape:window-height="1005"
     inkscape:window-x="0"
     inkscape:window-y="1"
     inkscape:window-maximized="1" />
  <metadata
     id="metadata5">
    <rdf:RDF>
      <cc:Work
         rdf:about="">
        <dc:format>image/svg+xml</dc:format>
        <dc:type
           rdf:resource="http://purl.org/dc/dcmitype/StillImage" />
        <dc:title></dc:title>
      </cc:Work>
    </rdf:RDF>
  </metadata>
  <g
     inkscape:label="Layer 1"
     inkscape:groupmode="layer"
     id="layer1"
     transform="translate(0,-164.70832)">
    <text
       xml:space="preserve"
       style="font-style:normal;font-variant:normal;font-weight:normal;font-stretch:normal;font-size:10.58333302px;line-height:1.25;font-family:'Bravura Text';-inkscape-font-specification:'Bravura Text, Normal';font-variant-ligatures:normal;font-variant-caps:normal;font-variant-numeric:normal;font-feature-settings:normal;text-align:start;letter-spacing:0px;word-spacing:0px;writing-mode:lr-tb;text-anchor:start;fill:#000000;fill-opacity:1;stroke:none;stroke-width:0.26458332"
       x="36.777084"
       y="111.2625"
       id="text12"><tspan
         sodipodi:role="line"
         id="tspan14"
         x="36.777084"
         y="121.05208"></tspan></text>
    <text
       xml:space="preserve"
       style="font-style:normal;font-variant:normal;font-weight:normal;font-stretch:normal;font-size:10.58333302px;line-height:1.25;font-family:'Bravura Text';-inkscape-font-specification:'Bravura Text, Normal';font-variant-ligatures:normal;font-variant-caps:normal;font-variant-numeric:normal;font-feature-settings:normal;text-align:start;letter-spacing:0px;word-spacing:0px;writing-mode:lr-tb;text-anchor:start;fill:#000000;fill-opacity:1;stroke:none;stroke-width:0.26458332"
       x="66.410416"
       y="130.04791"
       id="text18"><tspan
         sodipodi:role="line"
         id="tspan16"
         x="66.410416"
         y="139.83749"
         style="stroke-width:0.26458332" /></text>
    <g
       aria-label=""
       style="font-style:normal;font-variant:normal;font-weight:normal;font-stretch:normal;font-size:360.46774292px;line-height:1.25;font-family:'Bravura Text';-inkscape-font-specification:'Bravura Text, Normal';font-variant-ligatures:normal;font-variant-caps:normal;font-variant-numeric:normal;font-feature-settings:normal;text-align:start;letter-spacing:0px;word-spacing:0px;writing-mode:lr-tb;text-anchor:start;fill:#000000;fill-opacity:1;stroke:none;stroke-width:9.011693"
       id="text22">
      <g
         aria-label=""
         style="font-style:normal;font-variant:normal;font-weight:normal;font-stretch:normal;font-size:221.223526px;line-height:1.25;font-family:'Bravura Text';-inkscape-font-specification:'Bravura Text, Normal';font-variant-ligatures:normal;font-variant-caps:normal;font-variant-numeric:normal;font-feature-settings:normal;text-align:start;letter-spacing:0px;word-spacing:0px;writing-mode:lr-tb;text-anchor:start;fill:#000000;fill-opacity:1;stroke:none;stroke-width:49.83996582"
         id="text3874">
        <path
           d="m 13.494635,237.26964 c 2.875906,3.53958 5.309365,7.07915 7.742823,10.61873 0.221224,0.88489 1.106118,2.21223 1.106118,2.65468 0,0 0,0.44245 -0.221223,0.66367 -0.442447,0.66367 -1.106118,0.8849 -1.991012,0.8849 -0.663671,0 -2.212235,-0.44245 -2.875906,-0.66367 -0.884894,0 -1.991012,-0.44245 -2.875906,-0.44245 C 6.8579293,250.9855 0,258.5071 0,268.01971 c 0,8.84894 7.5215999,17.47666 20.573788,27.43172 1.327341,1.10612 3.097129,1.54856 4.42447,1.54856 1.327342,0 2.654683,-0.44244 2.654683,-1.10612 0.221223,-0.44244 0.442447,-0.88489 0.442447,-1.10611 0,-1.76979 -1.327341,-3.09713 -2.875906,-4.42447 -2.212235,0 -4.203247,-4.6457 -4.645694,-6.19426 -0.442447,-1.54857 -0.663671,-3.09713 -0.663671,-4.6457 0,-5.53058 2.654683,-11.72484 8.406494,-12.83096 0.884894,-0.22122 1.769789,-0.22122 2.875906,-0.22122 5.088141,0 10.839953,1.99101 13.715859,3.09713 0.221223,0 0.442447,0.22122 0.442447,0.22122 0.66367,0.22122 0.884894,0.22122 1.327341,0.22122 0.442447,0 0.884894,-0.22122 0.884894,-0.88489 0,-1.99101 -4.645694,-7.96405 -6.636706,-9.95506 -6.636705,-8.18527 -12.167294,-14.82198 -12.167294,-24.55581 0,-0.8849 0.221224,-1.76979 0.221224,-2.43346 0.66367,-10.17628 7.079153,-18.804 11.724847,-25.88315 0.442447,-0.8849 0.66367,-1.76979 0.66367,-2.65469 0,-1.76978 -0.66367,-3.53957 -0.66367,-3.53957 0,0 -26.3256,-30.9713 -29.201506,-34.06843 -0.884894,-0.88489 -2.2122349,-1.32734 -3.3183525,-1.32734 -1.7697883,0 -3.5395765,1.10612 -3.5395765,3.53958 0,0.88489 0.2212236,1.76979 0.8848941,2.87591 0.6636706,1.99101 10.6187289,11.06117 10.6187289,23.67091 0,6.63671 -2.654682,14.15831 -10.6187289,22.5648 -1.7697882,1.76979 -2.4334587,3.7608 -2.4334587,5.08814 0,2.43346 1.7697882,4.20325 1.7697882,4.20325 z"
           style="stroke-width:49.83996582"
           id="path3876" />
      </g>
    </g>
  </g>
</svg>
