<?xml version="1.0" encoding="UTF-8" standalone="no"?>
<!-- Created with Inkscape (http://www.inkscape.org/) -->

<svg
   xmlns:dc="http://purl.org/dc/elements/1.1/"
   xmlns:cc="http://creativecommons.org/ns#"
   xmlns:rdf="http://www.w3.org/1999/02/22-rdf-syntax-ns#"
   xmlns:svg="http://www.w3.org/2000/svg"
   xmlns="http://www.w3.org/2000/svg"
   xmlns:sodipodi="http://sodipodi.sourceforge.net/DTD/sodipodi-0.dtd"
   xmlns:inkscape="http://www.inkscape.org/namespaces/inkscape"
   width="461.11572"
   height="451.27368"
   viewBox="0 0 122.00352 119.39948"
   version="1.1"
   id="svg8"
   inkscape:version="0.92.2 5c3e80d, 2017-08-06"
   sodipodi:docname="grouped-16-16-8-rest.svg">
  <defs
     id="defs2" />
  <sodipodi:namedview
     id="base"
     pagecolor="#ffffff"
     bordercolor="#666666"
     borderopacity="1.0"
     inkscape:pageopacity="0.0"
     inkscape:pageshadow="2"
     inkscape:zoom="1.4142136"
     inkscape:cx="249.72291"
     inkscape:cy="270.6922"
     inkscape:document-units="mm"
     inkscape:current-layer="text22"
     showgrid="false"
     units="px"
     fit-margin-top="0"
     fit-margin-left="0"
     fit-margin-right="0"
     fit-margin-bottom="0"
     inkscape:window-width="1680"
     inkscape:window-height="1005"
     inkscape:window-x="0"
     inkscape:window-y="1"
     inkscape:window-maximized="1" />
  <metadata
     id="metadata5">
    <rdf:RDF>
      <cc:Work
         rdf:about="">
        <dc:format>image/svg+xml</dc:format>
        <dc:type
           rdf:resource="http://purl.org/dc/dcmitype/StillImage" />
        <dc:title></dc:title>
      </cc:Work>
    </rdf:RDF>
  </metadata>
  <g
     inkscape:label="Layer 1"
     inkscape:groupmode="layer"
     id="layer1"
     transform="translate(-7.546952e-6,-177.60042)">
    <text
       xml:space="preserve"
       style="font-style:normal;font-variant:normal;font-weight:normal;font-stretch:normal;font-size:10.58333302px;line-height:1.25;font-family:'Bravura Text';-inkscape-font-specification:'Bravura Text, Normal';font-variant-ligatures:normal;font-variant-caps:normal;font-variant-numeric:normal;font-feature-settings:normal;text-align:start;letter-spacing:0px;word-spacing:0px;writing-mode:lr-tb;text-anchor:start;fill:#000000;fill-opacity:1;stroke:none;stroke-width:0.26458332"
       x="36.777084"
       y="111.2625"
       id="text12"><tspan
         sodipodi:role="line"
         id="tspan14"
         x="36.777084"
         y="121.05208" /></text>
    <text
       xml:space="preserve"
       style="font-style:normal;font-variant:normal;font-weight:normal;font-stretch:normal;font-size:10.58333302px;line-height:1.25;font-family:'Bravura Text';-inkscape-font-specification:'Bravura Text, Normal';font-variant-ligatures:normal;font-variant-caps:normal;font-variant-numeric:normal;font-feature-settings:normal;text-align:start;letter-spacing:0px;word-spacing:0px;writing-mode:lr-tb;text-anchor:start;fill:#000000;fill-opacity:1;stroke:none;stroke-width:0.26458332"
       x="66.410416"
       y="130.04791"
       id="text18"><tspan
         sodipodi:role="line"
         id="tspan16"
         x="66.410416"
         y="139.83749"
         style="stroke-width:0.26458332" /></text>
    <g
       aria-label=""
       style="font-style:normal;font-variant:normal;font-weight:normal;font-stretch:normal;font-size:360.46774292px;line-height:1.25;font-family:'Bravura Text';-inkscape-font-specification:'Bravura Text, Normal';font-variant-ligatures:normal;font-variant-caps:normal;font-variant-numeric:normal;font-feature-settings:normal;text-align:start;letter-spacing:0px;word-spacing:0px;writing-mode:lr-tb;text-anchor:start;fill:#000000;fill-opacity:1;stroke:none;stroke-width:9.011693"
       id="text22">
      <g
         aria-label=" "
         style="font-style:normal;font-variant:normal;font-weight:normal;font-stretch:normal;font-size:10.58333302px;line-height:1.25;font-family:'Bravura Text';-inkscape-font-specification:'Bravura Text, Normal';font-variant-ligatures:normal;font-variant-caps:normal;font-variant-numeric:normal;font-feature-settings:normal;text-align:start;letter-spacing:0px;word-spacing:0px;writing-mode:lr-tb;text-anchor:start;fill:#000000;fill-opacity:1;stroke:none;stroke-width:2.38434362"
         id="text4354"
         transform="matrix(13.842904,0,0,13.842746,-717.3886,-2909.781)">
        <path
           id="path4360"
           style="stroke-width:2.38434362"
           d="m 59.673915,225.73431 c 0,-0.30692 -0.254,-0.56092 -0.560916,-0.56092 -0.3175,0 -0.5715,0.254 -0.5715,0.56092 0,0.17991 0.105833,0.33866 0.232833,0.43391 0.07408,0.0529 0.148167,0.0952 0.232833,0.11642 0.0635,0.0106 0.148167,0.0317 0.22225,0.0317 0.116417,0 0.232834,-0.0317 0.328084,-0.0635 0.116416,-0.0317 0.1905,-0.0635 0.306916,-0.127 0.01058,-0.0106 0.03175,-0.0106 0.04233,-0.0106 0.03175,0 0.04233,0.0423 0.04233,0.0847 0,0.0212 0,0.0529 -0.01058,0.0847 -0.02117,0.127 -0.635,1.82033 -0.783167,2.37067 0,0.10583 0.1905,0.11641 0.243417,0.11641 0.09525,0 0.211666,-0.0212 0.296333,-0.0847 0.02117,-0.0212 0.85725,-2.99509 0.85725,-2.99509 0.03175,-0.14816 0.07408,-0.28575 0.08467,-0.32808 0,-0.0847 -0.08467,-0.127 -0.105834,-0.13758 -0.02117,0 -0.04233,0 -0.09525,0.0423 -0.05292,0.0423 -0.47625,0.55033 -0.762,0.55033 z m -5.080496,-2.70187 v 1.05834 h 2.645834 v 0.51858 h -2.645834 v 1.05833 h 2.645834 v 3.81 c -0.169334,-0.13758 -0.402167,-0.22225 -0.677334,-0.22225 -1.04775,0 -1.883833,0.77259 -1.883833,1.59809 0,0.49741 0.402167,0.79375 0.92075,0.79375 0.846667,0 1.883833,-0.78317 1.894417,-1.5875 v -7.02734 z m -0.20869,6.45584 c -0.169333,-0.13759 -0.402166,-0.22225 -0.677333,-0.22225 -1.04775,0 -1.883833,0.77258 -1.883833,1.59808 0,0.49742 0.402166,0.79375 0.92075,0.79375 0.846666,0 1.883833,-0.79375 1.894416,-1.5875 v -7.03792 h -0.254 z"
           inkscape:connector-curvature="0" />
      </g>
    </g>
  </g>
</svg>
