<?xml version="1.0" encoding="UTF-8" standalone="no"?>
<!-- Created with Inkscape (http://www.inkscape.org/) -->

<svg
   xmlns:dc="http://purl.org/dc/elements/1.1/"
   xmlns:cc="http://creativecommons.org/ns#"
   xmlns:rdf="http://www.w3.org/1999/02/22-rdf-syntax-ns#"
   xmlns:svg="http://www.w3.org/2000/svg"
   xmlns="http://www.w3.org/2000/svg"
   xmlns:sodipodi="http://sodipodi.sourceforge.net/DTD/sodipodi-0.dtd"
   xmlns:inkscape="http://www.inkscape.org/namespaces/inkscape"
   width="132.29167mm"
   height="55.36375mm"
   viewBox="0 0 132.29167 55.36375"
   version="1.1"
   id="svg94"
   sodipodi:docname="wd.svg"
   inkscape:version="0.92.2 5c3e80d, 2017-08-06">
  <defs
     id="defs88" />
  <sodipodi:namedview
     id="base"
     pagecolor="#ffffff"
     bordercolor="#666666"
     borderopacity="1.0"
     inkscape:pageopacity="0.0"
     inkscape:pageshadow="2"
     inkscape:zoom="0.35"
     inkscape:cx="382.85713"
     inkscape:cy="102.85718"
     inkscape:document-units="mm"
     inkscape:current-layer="layer1"
     showgrid="false"
     inkscape:window-width="1680"
     inkscape:window-height="1005"
     inkscape:window-x="0"
     inkscape:window-y="1"
     inkscape:window-maximized="1"
     inkscape:snap-text-baseline="true"
     fit-margin-top="0"
     fit-margin-left="0"
     fit-margin-right="0"
     fit-margin-bottom="0" />
  <metadata
     id="metadata91">
    <rdf:RDF>
      <cc:Work
         rdf:about="">
        <dc:format>image/svg+xml</dc:format>
        <dc:type
           rdf:resource="http://purl.org/dc/dcmitype/StillImage" />
        <dc:title></dc:title>
      </cc:Work>
    </rdf:RDF>
  </metadata>
  <g
     inkscape:label="Layer 1"
     inkscape:groupmode="layer"
     id="layer1"
     transform="translate(-9.0826126e-7,-241.63626)">
    <text
       xml:space="preserve"
       style="font-style:normal;font-variant:normal;font-weight:normal;font-stretch:normal;font-size:10.58333302px;line-height:1.25;font-family:'Bravura Text';-inkscape-font-specification:'Bravura Text, Normal';font-variant-ligatures:normal;font-variant-caps:normal;font-variant-numeric:normal;font-feature-settings:normal;text-align:start;letter-spacing:0px;word-spacing:0px;writing-mode:lr-tb;text-anchor:start;fill:#000000;fill-opacity:1;stroke:none;stroke-width:0.26458332"
       x="16.630953"
       y="117.83928"
       id="text98"><tspan
         sodipodi:role="line"
         id="tspan100"
         x="16.630953"
         y="127.62886" /></text>
    <text
       xml:space="preserve"
       style="font-style:normal;font-variant:normal;font-weight:normal;font-stretch:normal;font-size:50.79999924px;line-height:1.25;font-family:'Bravura Text';-inkscape-font-specification:'Bravura Text';letter-spacing:0px;word-spacing:0px;fill:#000000;fill-opacity:1;stroke:none;stroke-width:0.26458332"
       x="16.630953"
       y="111.03571"
       id="text104"><tspan
         sodipodi:role="line"
         id="tspan102"
         x="16.630953"
         y="158.02571"
         style="font-style:normal;font-variant:normal;font-weight:normal;font-stretch:normal;font-size:50.79999924px;font-family:'Bravura Text';-inkscape-font-specification:'Bravura Text';stroke-width:0.26458332" /></text>
    <g
       aria-label=" "
       style="font-style:normal;font-variant:normal;font-weight:normal;font-stretch:normal;font-size:120.26547241px;line-height:1.25;font-family:'Bravura Text';-inkscape-font-specification:'Bravura Text, Normal';font-variant-ligatures:normal;font-variant-caps:normal;font-variant-numeric:normal;font-feature-settings:normal;text-align:start;letter-spacing:0px;word-spacing:0px;writing-mode:lr-tb;text-anchor:start;fill:#000000;fill-opacity:1;stroke:none;stroke-width:0.62638098"
       id="text108"
       transform="matrix(2.3017303,0,0,2.3017303,-1.1823112e-6,-340.10826)">
      <path
         inkscape:connector-curvature="0"
         d="M 20.805928,252.74226 C 7.9375221,252.74226 9.0826126e-7,258.03394 9.0826126e-7,264.52828 c 0,6.49434 5.53221169173874,12.26708 19.84380309173874,12.26708 15.754777,0 20.805927,-5.53221 20.805927,-12.26708 0,-6.73487 -10.944158,-11.78602 -19.843803,-11.78602 z m -10.1023,6.01328 c 1.082389,-3.36744 4.570088,-3.8485 7.576725,-3.8485 6.614601,0 11.906281,7.09567 11.906281,12.86841 0,0.60133 -0.120265,1.20265 -0.120265,1.80398 -0.481062,2.40531 -1.924248,4.08903 -4.329557,4.57009 -0.962124,0.36079 -1.924248,0.48106 -2.886371,0.48106 -0.962124,0 -1.683717,-0.12027 -2.525575,-0.48106 -1.683717,-0.48106 -3.247168,-1.32292 -4.570088,-2.40531 -0.721593,-0.72159 -1.443186,-1.44319 -2.044513,-2.16478 -1.924248,-2.16478 -3.367433,-5.53221 -3.367433,-8.53885 0,-0.84186 0.120265,-1.56345 0.360796,-2.28504 z"
         id="path204" />
      <path
         inkscape:connector-curvature="0"
         d="m 57.474878,264.76881 c 0,-2.64584 -2.164779,-4.81062 -4.810619,-4.81062 -2.64584,0 -4.810619,2.16478 -4.810619,4.81062 0,2.64584 2.164779,4.81062 4.810619,4.81062 2.64584,0 4.810619,-2.16478 4.810619,-4.81062 z"
         id="path206" />
    </g>
  </g>
</svg>
