<?xml version="1.0" encoding="UTF-8" standalone="no"?>
<!-- Created with Inkscape (http://www.inkscape.org/) -->

<svg
   xmlns:dc="http://purl.org/dc/elements/1.1/"
   xmlns:cc="http://creativecommons.org/ns#"
   xmlns:rdf="http://www.w3.org/1999/02/22-rdf-syntax-ns#"
   xmlns:svg="http://www.w3.org/2000/svg"
   xmlns="http://www.w3.org/2000/svg"
   xmlns:sodipodi="http://sodipodi.sourceforge.net/DTD/sodipodi-0.dtd"
   xmlns:inkscape="http://www.inkscape.org/namespaces/inkscape"
   width="214.73106"
   height="500"
   viewBox="0 0 56.814256 132.29165"
   version="1.1"
   id="svg8"
   inkscape:version="0.92.2 5c3e80d, 2017-08-06"
   sodipodi:docname="ts-4-4.svg">
  <defs
     id="defs2" />
  <sodipodi:namedview
     id="base"
     pagecolor="#ffffff"
     bordercolor="#666666"
     borderopacity="1.0"
     inkscape:pageopacity="0.0"
     inkscape:pageshadow="2"
     inkscape:zoom="1"
     inkscape:cx="280.75995"
     inkscape:cy="267.41901"
     inkscape:document-units="mm"
     inkscape:current-layer="text22"
     showgrid="false"
     units="px"
     fit-margin-top="0"
     fit-margin-left="0"
     fit-margin-right="0"
     fit-margin-bottom="0"
     inkscape:window-width="1680"
     inkscape:window-height="1005"
     inkscape:window-x="0"
     inkscape:window-y="1"
     inkscape:window-maximized="1" />
  <metadata
     id="metadata5">
    <rdf:RDF>
      <cc:Work
         rdf:about="">
        <dc:format>image/svg+xml</dc:format>
        <dc:type
           rdf:resource="http://purl.org/dc/dcmitype/StillImage" />
        <dc:title></dc:title>
      </cc:Work>
    </rdf:RDF>
  </metadata>
  <g
     inkscape:label="Layer 1"
     inkscape:groupmode="layer"
     id="layer1"
     transform="translate(-1.2017345e-4,-164.7083)">
    <text
       xml:space="preserve"
       style="font-style:normal;font-variant:normal;font-weight:normal;font-stretch:normal;font-size:10.58333302px;line-height:1.25;font-family:'Bravura Text';-inkscape-font-specification:'Bravura Text, Normal';font-variant-ligatures:normal;font-variant-caps:normal;font-variant-numeric:normal;font-feature-settings:normal;text-align:start;letter-spacing:0px;word-spacing:0px;writing-mode:lr-tb;text-anchor:start;fill:#000000;fill-opacity:1;stroke:none;stroke-width:0.26458332"
       x="36.777084"
       y="111.2625"
       id="text12"><tspan
         sodipodi:role="line"
         id="tspan14"
         x="36.777084"
         y="121.05208" /></text>
    <text
       xml:space="preserve"
       style="font-style:normal;font-variant:normal;font-weight:normal;font-stretch:normal;font-size:10.58333302px;line-height:1.25;font-family:'Bravura Text';-inkscape-font-specification:'Bravura Text, Normal';font-variant-ligatures:normal;font-variant-caps:normal;font-variant-numeric:normal;font-feature-settings:normal;text-align:start;letter-spacing:0px;word-spacing:0px;writing-mode:lr-tb;text-anchor:start;fill:#000000;fill-opacity:1;stroke:none;stroke-width:0.26458332"
       x="66.410416"
       y="130.04791"
       id="text18"><tspan
         sodipodi:role="line"
         id="tspan16"
         x="66.410416"
         y="139.83749"
         style="stroke-width:0.26458332" /></text>
    <g
       aria-label=""
       style="font-style:normal;font-variant:normal;font-weight:normal;font-stretch:normal;font-size:360.46774292px;line-height:1.25;font-family:'Bravura Text';-inkscape-font-specification:'Bravura Text, Normal';font-variant-ligatures:normal;font-variant-caps:normal;font-variant-numeric:normal;font-feature-settings:normal;text-align:start;letter-spacing:0px;word-spacing:0px;writing-mode:lr-tb;text-anchor:start;fill:#000000;fill-opacity:1;stroke:none;stroke-width:9.011693"
       id="text22">
      <g
         aria-label="     "
         style="font-style:normal;font-variant:normal;font-weight:normal;font-stretch:normal;font-size:10.58333302px;line-height:1.25;font-family:'Bravura Text';-inkscape-font-specification:'Bravura Text, Normal';font-variant-ligatures:normal;font-variant-caps:normal;font-variant-numeric:normal;font-feature-settings:normal;text-align:start;letter-spacing:0px;word-spacing:0px;writing-mode:lr-tb;text-anchor:start;fill:#000000;fill-opacity:1;stroke:none;stroke-width:2.38434362"
         id="text4452"
         transform="matrix(10.656437,0,0,10.656497,-222.74223,-2175.8406)" />
      <g
         aria-label=""
         style="font-style:normal;font-variant:normal;font-weight:normal;font-stretch:normal;font-size:10.58333302px;line-height:1.25;font-family:'Bravura Text';-inkscape-font-specification:'Bravura Text, Normal';font-variant-ligatures:normal;font-variant-caps:normal;font-variant-numeric:normal;font-feature-settings:normal;text-align:start;letter-spacing:0px;word-spacing:0px;writing-mode:lr-tb;text-anchor:start;fill:#000000;fill-opacity:1;stroke:none;stroke-width:2.38434362"
         id="text4548"
         transform="matrix(15.605456,0,0,15.605456,-23.289002,-3008.3021)">
        <path
           d="m 4.3922042,206.0786 v -1.80975 c 0,-0.0635 -0.010583,-0.14817 -0.1058333,-0.14817 -0.074083,0 -0.1164167,0.0212 -0.1693334,0.0847 l -0.8043333,0.97367 c -0.03175,0.0423 -0.074083,0.0847 -0.074083,0.1905 v 0.70908 h -1.143 c 0.6773333,-0.5715 2.032,-2.49767 2.0531666,-2.59292 0,-0.0106 0.010583,-0.0212 0.010583,-0.0423 0,-0.0635 -0.0635,-0.11642 -0.127,-0.11642 -0.074083,0 -0.4233333,0.0212 -0.5715,0.0212 -0.15875,0 -0.53975,-0.0212 -0.60325,-0.0212 -0.074083,0 -0.2010833,0.0317 -0.2010833,0.15875 0,1.05834 -0.8255,2.23309 -1.0795,2.58234 l -0.052917,0.0741 c 0,0.0106 -0.010583,0.0106 -0.010583,0.0212 -0.010583,0.0317 -0.021167,0.0741 -0.021167,0.0952 0,0.0847 0.0635,0.14816 0.1693333,0.14816 h 1.5769166 v 0.52917 c 0,0.23283 -0.1905,0.29633 -0.3386667,0.29633 -0.1375833,0 -0.2010833,0.0741 -0.2010833,0.15875 0,0.0847 0.042333,0.17992 0.1693333,0.17992 h 1.7991667 c 0.084667,0 0.1693333,-0.0635 0.1693333,-0.17992 0,-0.11641 -0.1058333,-0.16933 -0.1905,-0.16933 -0.084667,0 -0.254,-0.0529 -0.254,-0.3175 v -0.49742 H 5.006037 c 0.084667,0 0.127,-0.0635 0.127,-0.16933 0,-0.0952 -0.03175,-0.15875 -0.127,-0.15875 z m 0,4.23333 v -1.80975 c 0,-0.0635 -0.010583,-0.14816 -0.1058333,-0.14816 -0.074083,0 -0.1164167,0.0212 -0.1693334,0.0847 l -0.8043333,0.97367 c -0.03175,0.0423 -0.074083,0.0847 -0.074083,0.1905 v 0.70908 h -1.143 c 0.6773333,-0.5715 2.032,-2.49766 2.0531666,-2.59291 0,-0.0106 0.010583,-0.0212 0.010583,-0.0423 0,-0.0635 -0.0635,-0.11641 -0.127,-0.11641 -0.074083,0 -0.4233333,0.0212 -0.5715,0.0212 -0.15875,0 -0.53975,-0.0212 -0.60325,-0.0212 -0.074083,0 -0.2010833,0.0317 -0.2010833,0.15875 0,1.05833 -0.8255,2.23308 -1.0795,2.58233 l -0.052917,0.0741 c 0,0.0106 -0.010583,0.0106 -0.010583,0.0212 -0.010583,0.0317 -0.021167,0.0741 -0.021167,0.0952 0,0.0847 0.0635,0.14817 0.1693333,0.14817 h 1.5769166 v 0.52916 c 0,0.23284 -0.1905,0.29634 -0.3386667,0.29634 -0.1375833,0 -0.2010833,0.0741 -0.2010833,0.15875 0,0.0847 0.042333,0.17991 0.1693333,0.17991 h 1.7991667 c 0.084667,0 0.1693333,-0.0635 0.1693333,-0.17991 0,-0.11642 -0.1058333,-0.16934 -0.1905,-0.16934 -0.084667,0 -0.254,-0.0529 -0.254,-0.3175 V 210.6401 H 5.006037 c 0.084667,0 0.127,-0.0635 0.127,-0.16934 0,-0.0952 -0.03175,-0.15875 -0.127,-0.15875 z"
           style="stroke-width:2.38434362"
           id="path4550"
           inkscape:connector-curvature="0" />
      </g>
    </g>
  </g>
</svg>
