<?xml version="1.0" encoding="UTF-8" standalone="no"?>
<!-- Created with Inkscape (http://www.inkscape.org/) -->

<svg
   xmlns:dc="http://purl.org/dc/elements/1.1/"
   xmlns:cc="http://creativecommons.org/ns#"
   xmlns:rdf="http://www.w3.org/1999/02/22-rdf-syntax-ns#"
   xmlns:svg="http://www.w3.org/2000/svg"
   xmlns="http://www.w3.org/2000/svg"
   xmlns:sodipodi="http://sodipodi.sourceforge.net/DTD/sodipodi-0.dtd"
   xmlns:inkscape="http://www.inkscape.org/namespaces/inkscape"
   width="55.139942mm"
   height="132.29166mm"
   viewBox="0 0 55.139942 132.29166"
   version="1.1"
   id="svg94"
   sodipodi:docname="ts-2-2.svg"
   inkscape:version="0.92.2 5c3e80d, 2017-08-06">
  <defs
     id="defs88" />
  <sodipodi:namedview
     id="base"
     pagecolor="#ffffff"
     bordercolor="#666666"
     borderopacity="1.0"
     inkscape:pageopacity="0.0"
     inkscape:pageshadow="2"
     inkscape:zoom="0.35"
     inkscape:cx="905.71428"
     inkscape:cy="102.8571"
     inkscape:document-units="mm"
     inkscape:current-layer="layer1"
     showgrid="false"
     inkscape:window-width="1680"
     inkscape:window-height="1005"
     inkscape:window-x="0"
     inkscape:window-y="1"
     inkscape:window-maximized="1"
     fit-margin-top="0"
     fit-margin-left="0"
     fit-margin-right="0"
     fit-margin-bottom="0" />
  <metadata
     id="metadata91">
    <rdf:RDF>
      <cc:Work
         rdf:about="">
        <dc:format>image/svg+xml</dc:format>
        <dc:type
           rdf:resource="http://purl.org/dc/dcmitype/StillImage" />
        <dc:title></dc:title>
      </cc:Work>
    </rdf:RDF>
  </metadata>
  <g
     inkscape:label="Layer 1"
     inkscape:groupmode="layer"
     id="layer1"
     transform="translate(0,-164.70833)">
    <text
       xml:space="preserve"
       style="font-style:normal;font-variant:normal;font-weight:normal;font-stretch:normal;font-size:10.58333302px;line-height:1.25;font-family:'Bravura Text';-inkscape-font-specification:'Bravura Text, Normal';font-variant-ligatures:normal;font-variant-caps:normal;font-variant-numeric:normal;font-feature-settings:normal;text-align:start;letter-spacing:0px;word-spacing:0px;writing-mode:lr-tb;text-anchor:start;fill:#000000;fill-opacity:1;stroke:none;stroke-width:0.26458332"
       x="16.630953"
       y="117.83928"
       id="text98"><tspan
         sodipodi:role="line"
         id="tspan100"
         x="16.630953"
         y="127.62886" /></text>
    <text
       xml:space="preserve"
       style="font-style:normal;font-variant:normal;font-weight:normal;font-stretch:normal;font-size:50.79999924px;line-height:1.25;font-family:'Bravura Text';-inkscape-font-specification:'Bravura Text';letter-spacing:0px;word-spacing:0px;fill:#000000;fill-opacity:1;stroke:none;stroke-width:0.26458332"
       x="16.630953"
       y="111.03571"
       id="text104"><tspan
         sodipodi:role="line"
         id="tspan102"
         x="16.630953"
         y="158.02571"
         style="font-style:normal;font-variant:normal;font-weight:normal;font-stretch:normal;font-size:50.79999924px;font-family:'Bravura Text';-inkscape-font-specification:'Bravura Text';stroke-width:0.26458332" /></text>
    <g
       id="g120"
       transform="matrix(1.3632642,0,0,1.3632642,0,-107.88948)">
      <g
         transform="translate(-13.414724,64.42769)"
         id="text108"
         style="font-style:normal;font-variant:normal;font-weight:normal;font-stretch:normal;font-size:120.26547241px;line-height:1.25;font-family:'Bravura Text';-inkscape-font-specification:'Bravura Text, Normal';font-variant-ligatures:normal;font-variant-caps:normal;font-variant-numeric:normal;font-feature-settings:normal;text-align:start;letter-spacing:0px;word-spacing:0px;writing-mode:lr-tb;text-anchor:start;fill:#000000;fill-opacity:1;stroke:none;stroke-width:0.62638098"
         aria-label="">
        <path
           inkscape:connector-curvature="0"
           id="path113"
           d="m 53.380657,168.72521 c 0,-1.20265 -0.481062,-1.32292 -1.202655,-1.32292 -0.721593,0 -1.082389,0.3608 -1.202655,0.96212 0,0 -0.120265,0.12027 -0.120265,0.24054 -0.962124,2.28504 -1.683717,4.08902 -3.72823,4.08902 -0.481062,0 -0.962124,0 -1.683717,-0.24053 -1.202654,-0.48106 -1.924247,-0.60133 -2.886371,-1.08239 -1.924247,-0.72159 -6.37407,-2.28504 -10.34283,-2.28504 -1.322921,0 -2.525575,0.24053 -3.607965,0.60132 2.164779,-3.48769 10.342831,-6.37407 12.387344,-6.97539 1.443186,-0.3608 5.532212,-1.08239 8.659114,-3.72823 2.405309,-1.80398 4.209292,-4.57009 4.209292,-8.89965 0,-4.44982 -1.924248,-7.69699 -4.449823,-9.86177 -4.930884,-4.08902 -12.387344,-4.69035 -14.552122,-4.69035 -2.525575,0 -5.893008,0.12027 -8.298318,0.60133 -3.367433,0.72159 -6.734866,2.7661 -9.140176,5.41194 -1.563451,2.04452 -2.64584,4.44983 -2.64584,7.09567 0,1.32292 0.240531,2.64584 0.841858,4.08902 1.443186,3.00664 4.449823,5.29168 7.937522,5.29168 5.893008,0 6.734866,-6.01327 6.734866,-8.41858 0,-5.77274 -6.614601,-6.13354 -6.614601,-8.05779 0.120265,-1.32292 1.924248,-3.60796 7.576725,-3.60796 8.538848,0 8.659114,6.37407 8.659114,9.26044 0,3.60797 -1.202655,6.9754 -3.247168,9.7415 -3.487699,4.69036 -6.253805,6.9754 -10.944158,9.86177 -5.291681,3.36744 -9.01991,8.05779 -10.703627,14.07106 0,0.24053 0,0.48107 0,0.60133 0,1.08239 0.601327,2.28504 1.683717,3.00664 0.240531,0.24053 0.601327,0.24053 0.721592,0.24053 2.164779,0 3.367434,-5.89301 9.019911,-5.89301 3.848495,0 5.291681,5.17142 13.830529,5.17142 4.089026,0 11.545486,-0.3608 13.108937,-15.27372 z" />
      </g>
      <g
         transform="translate(-13.414724,64.42769)"
         id="text39"
         style="font-style:normal;font-variant:normal;font-weight:normal;font-stretch:normal;font-size:120.26547241px;line-height:1.25;font-family:'Bravura Text';-inkscape-font-specification:'Bravura Text, Normal';font-variant-ligatures:normal;font-variant-caps:normal;font-variant-numeric:normal;font-feature-settings:normal;text-align:start;letter-spacing:0px;word-spacing:0px;writing-mode:lr-tb;text-anchor:start;fill:#000000;fill-opacity:1;stroke:none;stroke-width:0.62638098"
         inkscape:transform-center-y="-43.089286"
         inkscape:transform-center-x="23.434524"
         aria-label="">
        <path
           inkscape:connector-curvature="0"
           id="path110"
           d="m 52.019941,216.577 c 0,-1.20265 -0.481062,-1.32292 -1.202655,-1.32292 -0.721593,0 -1.082389,0.3608 -1.202655,0.96213 0,0 -0.120265,0.12026 -0.120265,0.24053 -0.962124,2.28504 -1.683717,4.08902 -3.72823,4.08902 -0.481062,0 -0.962124,0 -1.683716,-0.24053 -1.202655,-0.48106 -1.924248,-0.60133 -2.886372,-1.08239 -1.924247,-0.72159 -6.37407,-2.28504 -10.34283,-2.28504 -1.322921,0 -2.525575,0.24053 -3.607965,0.60133 2.164779,-3.4877 10.342831,-6.37407 12.387344,-6.9754 1.443186,-0.3608 5.532212,-1.08239 8.659114,-3.72823 2.40531,-1.80398 4.209292,-4.57009 4.209292,-8.89965 0,-4.44982 -1.924248,-7.69699 -4.449823,-9.86176 -4.930884,-4.08903 -12.387343,-4.69036 -14.552122,-4.69036 -2.525575,0 -5.893008,0.12027 -8.298318,0.60133 -3.367433,0.72159 -6.734866,2.76611 -9.140175,5.41195 -1.563452,2.04451 -2.645841,4.44982 -2.645841,7.09566 0,1.32292 0.240531,2.64584 0.841858,4.08902 1.443186,3.00664 4.449823,5.29169 7.937522,5.29169 5.893008,0 6.734866,-6.01328 6.734866,-8.41859 0,-5.77274 -6.614601,-6.13354 -6.614601,-8.05778 0.120266,-1.32292 1.924248,-3.60797 7.576725,-3.60797 8.538848,0 8.659114,6.37407 8.659114,9.26044 0,3.60797 -1.202655,6.9754 -3.247168,9.74151 -3.487699,4.69035 -6.253804,6.97539 -10.944158,9.86176 -5.291681,3.36744 -9.01991,8.05779 -10.703627,14.07106 0,0.24054 0,0.48107 0,0.60133 0,1.08239 0.601327,2.28505 1.683717,3.00664 0.240531,0.24053 0.601327,0.24053 0.721593,0.24053 2.164778,0 3.367433,-5.89301 9.01991,-5.89301 3.848495,0 5.291681,5.17142 13.830529,5.17142 4.089026,0 11.545486,-0.3608 13.108937,-15.27372 z" />
      </g>
    </g>
  </g>
</svg>
