<?xml version="1.0" encoding="UTF-8" standalone="no"?>
<!-- Created with Inkscape (http://www.inkscape.org/) -->

<svg
   xmlns:dc="http://purl.org/dc/elements/1.1/"
   xmlns:cc="http://creativecommons.org/ns#"
   xmlns:rdf="http://www.w3.org/1999/02/22-rdf-syntax-ns#"
   xmlns:svg="http://www.w3.org/2000/svg"
   xmlns="http://www.w3.org/2000/svg"
   xmlns:sodipodi="http://sodipodi.sourceforge.net/DTD/sodipodi-0.dtd"
   xmlns:inkscape="http://www.inkscape.org/namespaces/inkscape"
   width="132.29167mm"
   height="70.867081mm"
   viewBox="0 0 132.29167 70.867081"
   version="1.1"
   id="svg94"
   sodipodi:docname="ts-2-2-3-8.svg"
   inkscape:version="0.92.2 5c3e80d, 2017-08-06">
  <defs
     id="defs88" />
  <sodipodi:namedview
     id="base"
     pagecolor="#ffffff"
     bordercolor="#666666"
     borderopacity="1.0"
     inkscape:pageopacity="0.0"
     inkscape:pageshadow="2"
     inkscape:zoom="0.35"
     inkscape:cx="905.71428"
     inkscape:cy="102.85718"
     inkscape:document-units="mm"
     inkscape:current-layer="layer1"
     showgrid="false"
     inkscape:window-width="1680"
     inkscape:window-height="1005"
     inkscape:window-x="0"
     inkscape:window-y="1"
     inkscape:window-maximized="1"
     fit-margin-top="0"
     fit-margin-left="0"
     fit-margin-right="0"
     fit-margin-bottom="0" />
  <metadata
     id="metadata91">
    <rdf:RDF>
      <cc:Work
         rdf:about="">
        <dc:format>image/svg+xml</dc:format>
        <dc:type
           rdf:resource="http://purl.org/dc/dcmitype/StillImage" />
        <dc:title></dc:title>
      </cc:Work>
    </rdf:RDF>
  </metadata>
  <g
     inkscape:label="Layer 1"
     inkscape:groupmode="layer"
     id="layer1"
     transform="translate(4.46308e-7,-226.13292)">
    <text
       xml:space="preserve"
       style="font-style:normal;font-variant:normal;font-weight:normal;font-stretch:normal;font-size:10.58333302px;line-height:1.25;font-family:'Bravura Text';-inkscape-font-specification:'Bravura Text, Normal';font-variant-ligatures:normal;font-variant-caps:normal;font-variant-numeric:normal;font-feature-settings:normal;text-align:start;letter-spacing:0px;word-spacing:0px;writing-mode:lr-tb;text-anchor:start;fill:#000000;fill-opacity:1;stroke:none;stroke-width:0.26458332"
       x="16.630953"
       y="117.83928"
       id="text98"><tspan
         sodipodi:role="line"
         id="tspan100"
         x="16.630953"
         y="127.62886" /></text>
    <text
       xml:space="preserve"
       style="font-style:normal;font-variant:normal;font-weight:normal;font-stretch:normal;font-size:50.79999924px;line-height:1.25;font-family:'Bravura Text';-inkscape-font-specification:'Bravura Text';letter-spacing:0px;word-spacing:0px;fill:#000000;fill-opacity:1;stroke:none;stroke-width:0.26458332"
       x="16.630953"
       y="111.03571"
       id="text104"><tspan
         sodipodi:role="line"
         id="tspan102"
         x="16.630953"
         y="158.02571"
         style="font-style:normal;font-variant:normal;font-weight:normal;font-stretch:normal;font-size:50.79999924px;font-family:'Bravura Text';-inkscape-font-specification:'Bravura Text';stroke-width:0.26458332" /></text>
    <g
       id="g295"
       transform="matrix(0.72938055,0,0,0.72938055,-10.776919,127.27856)">
      <g
         id="text108"
         style="font-style:normal;font-variant:normal;font-weight:normal;font-stretch:normal;font-size:120.26547241px;line-height:1.25;font-family:'Bravura Text';-inkscape-font-specification:'Bravura Text, Normal';font-variant-ligatures:normal;font-variant-caps:normal;font-variant-numeric:normal;font-feature-settings:normal;text-align:start;letter-spacing:0px;word-spacing:0px;writing-mode:lr-tb;text-anchor:start;fill:#000000;fill-opacity:1;stroke:none;stroke-width:0.62638098"
         aria-label="        ">
        <path
           id="path276"
           d="m 53.380657,168.72521 c 0,-1.20265 -0.481062,-1.32292 -1.202655,-1.32292 -0.721593,0 -1.082389,0.3608 -1.202655,0.96212 0,0 -0.120265,0.12027 -0.120265,0.24054 -0.962124,2.28504 -1.683717,4.08902 -3.72823,4.08902 -0.481062,0 -0.962124,0 -1.683717,-0.24053 -1.202654,-0.48106 -1.924247,-0.60133 -2.886371,-1.08239 -1.924247,-0.72159 -6.37407,-2.28504 -10.34283,-2.28504 -1.322921,0 -2.525575,0.24053 -3.607965,0.60132 2.164779,-3.48769 10.342831,-6.37407 12.387344,-6.97539 1.443186,-0.3608 5.532212,-1.08239 8.659114,-3.72823 2.405309,-1.80398 4.209292,-4.57009 4.209292,-8.89965 0,-4.44982 -1.924248,-7.69699 -4.449823,-9.86177 -4.930884,-4.08902 -12.387344,-4.69035 -14.552122,-4.69035 -2.525575,0 -5.893008,0.12027 -8.298318,0.60133 -3.367433,0.72159 -6.734866,2.7661 -9.140176,5.41194 -1.563451,2.04452 -2.64584,4.44983 -2.64584,7.09567 0,1.32292 0.240531,2.64584 0.841858,4.08902 1.443186,3.00664 4.449823,5.29168 7.937522,5.29168 5.893008,0 6.734866,-6.01327 6.734866,-8.41858 0,-5.77274 -6.614601,-6.13354 -6.614601,-8.05779 0.120265,-1.32292 1.924248,-3.60796 7.576725,-3.60796 8.538848,0 8.659114,6.37407 8.659114,9.26044 0,3.60797 -1.202655,6.9754 -3.247168,9.7415 -3.487699,4.69036 -6.253805,6.9754 -10.944158,9.86177 -5.291681,3.36744 -9.01991,8.05779 -10.703627,14.07106 0,0.24053 0,0.48107 0,0.60133 0,1.08239 0.601327,2.28504 1.683717,3.00664 0.240531,0.24053 0.601327,0.24053 0.721592,0.24053 2.164779,0 3.367434,-5.89301 9.019911,-5.89301 3.848495,0 5.291681,5.17142 13.830529,5.17142 4.089026,0 11.545486,-0.3608 13.108937,-15.27372 z"
           inkscape:connector-curvature="0" />
        <path
           id="path278"
           d="m 75.441854,158.62291 c -0.360796,0 -0.601327,-0.3608 -0.601327,-0.84186 v -8.89964 c 0,-0.3608 -0.360797,-0.72159 -0.721593,-0.72159 H 71.83389 c -0.360797,0 -0.721593,0.36079 -0.721593,0.72159 v 8.89964 c 0,0.48106 -0.360796,0.84186 -0.721593,0.84186 h -8.899645 c -0.481062,0 -0.841858,0.24053 -0.841858,0.60133 v 2.40531 c 0,0.36079 0.360796,0.60133 0.841858,0.60133 h 8.899645 c 0.601328,0 0.721593,0.48106 0.721593,0.84185 v 8.89965 c 0,0.36079 0.360796,0.72159 0.721593,0.72159 h 2.285044 c 0.360796,0 0.721593,-0.3608 0.721593,-0.72159 v -8.89965 c 0,-0.48106 0.360796,-0.84185 0.721593,-0.84185 h 9.01991 c 0.360796,0 0.601327,-0.24054 0.601327,-0.60133 v -2.40531 c 0,-0.3608 -0.240531,-0.60133 -0.601327,-0.60133 z"
           inkscape:connector-curvature="0" />
        <path
           id="path280"
           d="m 125.72786,168.72521 c 0,-1.20265 -0.48107,-1.32292 -1.20266,-1.32292 -0.72159,0 -1.08239,0.3608 -1.20265,0.96212 0,0 -0.12027,0.12027 -0.12027,0.24054 -0.96212,2.28504 -1.68372,4.08902 -3.72823,4.08902 -0.48106,0 -0.96212,0 -1.68372,-0.24053 -1.20265,-0.48106 -1.92424,-0.60133 -2.88637,-1.08239 -1.92424,-0.72159 -6.37407,-2.28504 -10.34283,-2.28504 -1.32292,0 -2.52557,0.24053 -3.60796,0.60132 2.16478,-3.48769 10.34283,-6.37407 12.38734,-6.97539 1.44319,-0.3608 5.53221,-1.08239 8.65912,-3.72823 2.4053,-1.80398 4.20929,-4.57009 4.20929,-8.89965 0,-4.44982 -1.92425,-7.69699 -4.44983,-9.86177 -4.93088,-4.08902 -12.38734,-4.69035 -14.55212,-4.69035 -2.52557,0 -5.89301,0.12027 -8.298315,0.60133 -3.367433,0.72159 -6.734867,2.7661 -9.140176,5.41194 -1.563451,2.04452 -2.64584,4.44983 -2.64584,7.09567 0,1.32292 0.24053,2.64584 0.841858,4.08902 1.443185,3.00664 4.449822,5.29168 7.937521,5.29168 5.893012,0 6.734862,-6.01327 6.734862,-8.41858 0,-5.77274 -6.614597,-6.13354 -6.614597,-8.05779 0.120266,-1.32292 1.924248,-3.60796 7.576727,-3.60796 8.53885,0 8.65911,6.37407 8.65911,9.26044 0,3.60797 -1.20265,6.9754 -3.24717,9.7415 -3.48769,4.69036 -6.2538,6.9754 -10.944153,9.86177 -5.291681,3.36744 -9.019911,8.05779 -10.703628,14.07106 0,0.24053 0,0.48107 0,0.60133 0,1.08239 0.601328,2.28504 1.683717,3.00664 0.240531,0.24053 0.601327,0.24053 0.721593,0.24053 2.164778,0 3.367433,-5.89301 9.01991,-5.89301 3.848491,0 5.291681,5.17142 13.830531,5.17142 4.08902,0 11.54548,-0.3608 13.10894,-15.27372 z"
           inkscape:connector-curvature="0" />
        <path
           id="path282"
           d="m 147.78905,158.62291 c -0.36079,0 -0.60132,-0.3608 -0.60132,-0.84186 v -8.89964 c 0,-0.3608 -0.3608,-0.72159 -0.7216,-0.72159 h -2.28504 c -0.3608,0 -0.72159,0.36079 -0.72159,0.72159 v 8.89964 c 0,0.48106 -0.3608,0.84186 -0.7216,0.84186 h -8.89964 c -0.48106,0 -0.84186,0.24053 -0.84186,0.60133 v 2.40531 c 0,0.36079 0.3608,0.60133 0.84186,0.60133 h 8.89964 c 0.60133,0 0.7216,0.48106 0.7216,0.84185 v 8.89965 c 0,0.36079 0.36079,0.72159 0.72159,0.72159 h 2.28504 c 0.3608,0 0.7216,-0.3608 0.7216,-0.72159 v -8.89965 c 0,-0.48106 0.36079,-0.84185 0.72159,-0.84185 h 9.01991 c 0.36079,0 0.60133,-0.24054 0.60133,-0.60133 v -2.40531 c 0,-0.3608 -0.24054,-0.60133 -0.60133,-0.60133 z"
           inkscape:connector-curvature="0" />
        <path
           id="path284"
           d="m 177.99072,136.13327 c -0.48106,0 -0.96212,-0.12027 -1.44319,-0.12027 -8.17805,0 -16.47637,5.41195 -16.47637,10.58336 0,3.12691 1.80399,7.3362 7.81726,7.81726 h 0.48106 c 4.20929,0 6.25381,-3.1269 6.25381,-6.2538 v -0.84186 c -0.24053,-3.4877 -2.64584,-3.72823 -3.12691,-3.96876 -0.48106,-0.12027 -1.92424,0 -1.92424,-1.32292 v -0.3608 c 0.24053,-1.68372 3.1269,-2.40531 4.08902,-2.40531 8.17805,0 8.89965,5.05115 8.89965,7.45646 v 0.60133 c 0,7.09566 -5.65248,9.98203 -11.78602,10.22256 -0.96212,0.12027 -2.28504,0.60133 -2.28504,1.68372 0,1.08239 1.68371,1.08239 2.40531,1.08239 11.06442,0 11.90628,7.57672 11.90628,8.77938 0,10.22256 -5.17142,11.30495 -7.21593,11.30495 -0.48106,0 -0.84186,0 -0.96212,0 -0.7216,-0.12026 -2.52558,-0.12026 -2.64584,-1.56345 v -0.48106 c 0,-2.16478 2.16477,-3.60797 2.16477,-6.37407 0,-0.96213 0,-2.04451 -0.48106,-3.00664 -0.96212,-2.40531 -3.84849,-3.96876 -6.37407,-3.96876 -0.36079,0 -0.72159,0 -1.08239,0.12027 -1.68371,0.36079 -3.4877,1.32292 -4.57008,2.52557 -1.68372,1.44319 -2.16478,3.72823 -2.16478,5.89301 0.24053,7.45646 6.97539,10.34283 16.47637,10.58336 h 0.84186 c 9.50097,0 19.36274,-4.93088 19.36274,-13.34947 v -0.72159 c -0.12027,-1.32292 -0.3608,-2.64584 -0.84186,-3.96876 -0.48106,-0.96212 -1.08239,-1.92425 -1.92425,-2.76611 -0.48106,-0.72159 -1.32292,-1.44318 -2.28504,-2.04451 l -2.04452,-1.08239 -3.1269,-0.96212 c -0.48106,0 -0.72159,0 -0.96212,-0.48106 -0.12027,-0.12027 -0.12027,-0.24053 -0.12027,-0.48107 0,-0.36079 0.12027,-0.72159 0.3608,-0.84185 1.08239,-0.24053 2.16478,-0.3608 3.00663,-0.84186 1.44319,-0.72159 2.76611,-1.32292 3.72823,-2.64584 1.56346,-1.68372 2.16478,-3.8485 2.16478,-6.13354 0,-8.77938 -12.02654,-11.42522 -16.11557,-11.66575 z"
           inkscape:connector-curvature="0" />
      </g>
      <g
         id="text39"
         style="font-style:normal;font-variant:normal;font-weight:normal;font-stretch:normal;font-size:120.26547241px;line-height:1.25;font-family:'Bravura Text';-inkscape-font-specification:'Bravura Text, Normal';font-variant-ligatures:normal;font-variant-caps:normal;font-variant-numeric:normal;font-feature-settings:normal;text-align:start;letter-spacing:0px;word-spacing:0px;writing-mode:lr-tb;text-anchor:start;fill:#000000;fill-opacity:1;stroke:none;stroke-width:0.62638098"
         inkscape:transform-center-y="-43.089286"
         inkscape:transform-center-x="23.434524"
         aria-label="">
        <path
           id="path273"
           d="m 116.92874,204.30992 c 3.4877,-2.16477 5.77274,-5.41194 5.77274,-10.22256 0,-9.7415 -14.07106,-11.18469 -16.7169,-11.18469 -11.18469,0 -18.761415,5.05115 -18.761415,13.10894 0,6.73486 3.72823,10.22256 8.418583,12.8684 -5.051149,2.40531 -8.899645,5.53221 -8.899645,11.66575 0,8.29832 8.659114,12.14682 18.160087,12.14682 9.62124,0 19.96407,-4.08903 19.96407,-17.0777 0,-5.77274 -3.36744,-9.01991 -7.93752,-11.30496 z m -12.38735,25.25575 c -6.494332,0 -12.267075,-3.24716 -12.267075,-9.50097 0,-3.84849 3.367433,-7.45646 7.576725,-9.14018 6.9754,3.12691 14.07106,5.17142 14.07106,11.54549 0,3.8485 -2.88637,7.09566 -9.38071,7.09566 z m 7.45646,-27.42052 c -7.69699,-2.76611 -15.87504,-4.32956 -15.87504,-10.4631 0,-3.96876 5.41195,-6.01327 9.62124,-6.01327 3.1269,0 11.30495,1.56345 11.30495,8.29831 0,3.8485 -1.92425,6.37407 -5.05115,8.17806 z"
           inkscape:connector-curvature="0" />
      </g>
    </g>
  </g>
</svg>
