<?xml version="1.0" encoding="UTF-8" standalone="no"?>
<!-- Created with Inkscape (http://www.inkscape.org/) -->

<svg
   xmlns:dc="http://purl.org/dc/elements/1.1/"
   xmlns:cc="http://creativecommons.org/ns#"
   xmlns:rdf="http://www.w3.org/1999/02/22-rdf-syntax-ns#"
   xmlns:svg="http://www.w3.org/2000/svg"
   xmlns="http://www.w3.org/2000/svg"
   xmlns:sodipodi="http://sodipodi.sourceforge.net/DTD/sodipodi-0.dtd"
   xmlns:inkscape="http://www.inkscape.org/namespaces/inkscape"
   width="52.297363mm"
   height="132.29167mm"
   viewBox="0 0 52.297363 132.29167"
   version="1.1"
   id="svg94"
   sodipodi:docname="ts-5-8.svg"
   inkscape:version="0.92.2 5c3e80d, 2017-08-06">
  <defs
     id="defs88" />
  <sodipodi:namedview
     id="base"
     pagecolor="#ffffff"
     bordercolor="#666666"
     borderopacity="1.0"
     inkscape:pageopacity="0.0"
     inkscape:pageshadow="2"
     inkscape:zoom="0.35"
     inkscape:cx="905.71428"
     inkscape:cy="102.85714"
     inkscape:document-units="mm"
     inkscape:current-layer="layer1"
     showgrid="false"
     inkscape:window-width="1680"
     inkscape:window-height="1005"
     inkscape:window-x="0"
     inkscape:window-y="1"
     inkscape:window-maximized="1"
     fit-margin-top="0"
     fit-margin-left="0"
     fit-margin-right="0"
     fit-margin-bottom="0" />
  <metadata
     id="metadata91">
    <rdf:RDF>
      <cc:Work
         rdf:about="">
        <dc:format>image/svg+xml</dc:format>
        <dc:type
           rdf:resource="http://purl.org/dc/dcmitype/StillImage" />
        <dc:title></dc:title>
      </cc:Work>
    </rdf:RDF>
  </metadata>
  <g
     inkscape:label="Layer 1"
     inkscape:groupmode="layer"
     id="layer1"
     transform="translate(-1.6049801e-7,-164.70833)">
    <text
       xml:space="preserve"
       style="font-style:normal;font-variant:normal;font-weight:normal;font-stretch:normal;font-size:10.58333302px;line-height:1.25;font-family:'Bravura Text';-inkscape-font-specification:'Bravura Text, Normal';font-variant-ligatures:normal;font-variant-caps:normal;font-variant-numeric:normal;font-feature-settings:normal;text-align:start;letter-spacing:0px;word-spacing:0px;writing-mode:lr-tb;text-anchor:start;fill:#000000;fill-opacity:1;stroke:none;stroke-width:0.26458332"
       x="16.630953"
       y="117.83928"
       id="text98"><tspan
         sodipodi:role="line"
         id="tspan100"
         x="16.630953"
         y="127.62886" /></text>
    <text
       xml:space="preserve"
       style="font-style:normal;font-variant:normal;font-weight:normal;font-stretch:normal;font-size:50.79999924px;line-height:1.25;font-family:'Bravura Text';-inkscape-font-specification:'Bravura Text';letter-spacing:0px;word-spacing:0px;fill:#000000;fill-opacity:1;stroke:none;stroke-width:0.26458332"
       x="16.630953"
       y="111.03571"
       id="text104"><tspan
         sodipodi:role="line"
         id="tspan102"
         x="16.630953"
         y="158.02571"
         style="font-style:normal;font-variant:normal;font-weight:normal;font-stretch:normal;font-size:50.79999924px;font-family:'Bravura Text';-inkscape-font-specification:'Bravura Text';stroke-width:0.26458332" /></text>
    <g
       id="g131"
       transform="matrix(1.3717645,0,0,1.3717645,-18.401842,-22.199424)">
      <g
         id="text108"
         style="font-style:normal;font-variant:normal;font-weight:normal;font-stretch:normal;font-size:120.26547241px;line-height:1.25;font-family:'Bravura Text';-inkscape-font-specification:'Bravura Text, Normal';font-variant-ligatures:normal;font-variant-caps:normal;font-variant-numeric:normal;font-feature-settings:normal;text-align:start;letter-spacing:0px;word-spacing:0px;writing-mode:lr-tb;text-anchor:start;fill:#000000;fill-opacity:1;stroke:none;stroke-width:0.62638098"
         aria-label="">
        <path
           id="path124"
           d="m 20.187386,154.29335 c 0,0 0.360797,-5.41194 0.481062,-6.2538 0.120266,-0.84186 0.601328,-1.32292 1.443186,-1.32292 h 0.360796 c 0.962124,0.24053 5.532212,0.96212 9.380707,0.96212 13.469733,0 13.950795,-7.69699 13.950795,-9.26044 0,-1.32292 -0.360797,-2.04451 -1.443186,-2.04451 -1.202654,0 -8.659114,0.84186 -11.786016,0.84186 -3.126902,0 -11.304954,-0.7216 -12.988671,-0.96213 -1.683717,0 -2.164779,0.84186 -2.285044,1.68372 l -1.082389,21.28699 v 0.24053 c 0,1.20265 0.962123,1.44319 1.924247,1.44319 0.962124,0 1.08239,-0.84186 2.164779,-1.92425 0.962124,-0.96213 3.247168,-3.1269 6.494335,-3.1269 3.247168,0 9.861769,1.80398 9.861769,12.5076 0,10.58337 -5.652477,11.90629 -8.178052,11.90629 -0.721593,0 -1.443186,0 -2.164779,-0.3608 -0.481062,-0.24053 -1.082389,-0.60133 -1.202654,-1.32292 0,-0.60133 0.721592,-1.08239 1.202654,-1.32292 2.164779,-1.32292 3.607965,-3.72823 3.607965,-6.49434 0,-4.20929 -3.367434,-7.45646 -7.45646,-7.45646 -5.171415,0 -7.336194,3.72823 -7.576724,7.09567 -0.120266,0.60132 -0.120266,1.20265 -0.120266,1.80398 0,7.93752 5.171415,11.90628 17.077697,11.90628 11.545485,0 17.79929,-7.09566 17.79929,-15.75478 0,-8.77938 -7.095663,-15.87504 -15.875042,-15.87504 -5.532212,0 -9.621238,0.96213 -12.74814,2.76611 -0.240531,0.12026 -0.360797,0.12026 -0.481062,0.12026 -0.360797,0 -0.360797,-0.48106 -0.360797,-0.72159 z"
           inkscape:connector-curvature="0" />
      </g>
      <g
         id="text39"
         style="font-style:normal;font-variant:normal;font-weight:normal;font-stretch:normal;font-size:120.26547241px;line-height:1.25;font-family:'Bravura Text';-inkscape-font-specification:'Bravura Text, Normal';font-variant-ligatures:normal;font-variant-caps:normal;font-variant-numeric:normal;font-feature-settings:normal;text-align:start;letter-spacing:0px;word-spacing:0px;writing-mode:lr-tb;text-anchor:start;fill:#000000;fill-opacity:1;stroke:none;stroke-width:0.62638098"
         inkscape:transform-center-y="-43.089286"
         inkscape:transform-center-x="23.434524"
         aria-label="">
        <path
           id="path121"
           d="m 43.601358,204.30992 c 3.487698,-2.16477 5.772742,-5.41194 5.772742,-10.22256 0,-9.7415 -14.07106,-11.18469 -16.7169,-11.18469 -11.184689,0 -18.761414,5.05115 -18.761414,13.10894 0,6.73486 3.72823,10.22256 8.418583,12.8684 -5.05115,2.40531 -8.899645,5.53221 -8.899645,11.66575 0,8.29832 8.659114,12.14682 18.160087,12.14682 9.621237,0 19.964068,-4.08903 19.964068,-17.0777 0,-5.77274 -3.367433,-9.01991 -7.937521,-11.30496 z m -12.387344,25.25575 c -6.494335,0 -12.267078,-3.24716 -12.267078,-9.50097 0,-3.84849 3.367433,-7.45646 7.576725,-9.14018 6.975397,3.12691 14.07106,5.17142 14.07106,11.54549 0,3.8485 -2.886371,7.09566 -9.380707,7.09566 z m 7.456459,-27.42052 c -7.69699,-2.76611 -15.875042,-4.32956 -15.875042,-10.4631 0,-3.96876 5.411946,-6.01327 9.621238,-6.01327 3.126902,0 11.304954,1.56345 11.304954,8.29831 0,3.8485 -1.924247,6.37407 -5.05115,8.17806 z"
           inkscape:connector-curvature="0" />
      </g>
    </g>
  </g>
</svg>
