<?xml version="1.0" encoding="UTF-8" standalone="no"?>
<!-- Created with Inkscape (http://www.inkscape.org/) -->

<svg
   xmlns:dc="http://purl.org/dc/elements/1.1/"
   xmlns:cc="http://creativecommons.org/ns#"
   xmlns:rdf="http://www.w3.org/1999/02/22-rdf-syntax-ns#"
   xmlns:svg="http://www.w3.org/2000/svg"
   xmlns="http://www.w3.org/2000/svg"
   xmlns:sodipodi="http://sodipodi.sourceforge.net/DTD/sodipodi-0.dtd"
   xmlns:inkscape="http://www.inkscape.org/namespaces/inkscape"
   width="56.652809mm"
   height="132.29167mm"
   viewBox="0 0 56.652809 132.29167"
   version="1.1"
   id="svg94"
   sodipodi:docname="ts-6-4.svg"
   inkscape:version="0.92.2 5c3e80d, 2017-08-06">
  <defs
     id="defs88" />
  <sodipodi:namedview
     id="base"
     pagecolor="#ffffff"
     bordercolor="#666666"
     borderopacity="1.0"
     inkscape:pageopacity="0.0"
     inkscape:pageshadow="2"
     inkscape:zoom="0.35"
     inkscape:cx="905.71428"
     inkscape:cy="102.85713"
     inkscape:document-units="mm"
     inkscape:current-layer="layer1"
     showgrid="false"
     inkscape:window-width="1680"
     inkscape:window-height="1005"
     inkscape:window-x="0"
     inkscape:window-y="1"
     inkscape:window-maximized="1"
     fit-margin-top="0"
     fit-margin-left="0"
     fit-margin-right="0"
     fit-margin-bottom="0" />
  <metadata
     id="metadata91">
    <rdf:RDF>
      <cc:Work
         rdf:about="">
        <dc:format>image/svg+xml</dc:format>
        <dc:type
           rdf:resource="http://purl.org/dc/dcmitype/StillImage" />
        <dc:title></dc:title>
      </cc:Work>
    </rdf:RDF>
  </metadata>
  <g
     inkscape:label="Layer 1"
     inkscape:groupmode="layer"
     id="layer1"
     transform="translate(-1.1526011e-7,-164.70833)">
    <text
       xml:space="preserve"
       style="font-style:normal;font-variant:normal;font-weight:normal;font-stretch:normal;font-size:10.58333302px;line-height:1.25;font-family:'Bravura Text';-inkscape-font-specification:'Bravura Text, Normal';font-variant-ligatures:normal;font-variant-caps:normal;font-variant-numeric:normal;font-feature-settings:normal;text-align:start;letter-spacing:0px;word-spacing:0px;writing-mode:lr-tb;text-anchor:start;fill:#000000;fill-opacity:1;stroke:none;stroke-width:0.26458332"
       x="16.630953"
       y="117.83928"
       id="text98"><tspan
         sodipodi:role="line"
         id="tspan100"
         x="16.630953"
         y="127.62886" /></text>
    <text
       xml:space="preserve"
       style="font-style:normal;font-variant:normal;font-weight:normal;font-stretch:normal;font-size:50.79999924px;line-height:1.25;font-family:'Bravura Text';-inkscape-font-specification:'Bravura Text';letter-spacing:0px;word-spacing:0px;fill:#000000;fill-opacity:1;stroke:none;stroke-width:0.26458332"
       x="16.630953"
       y="111.03571"
       id="text104"><tspan
         sodipodi:role="line"
         id="tspan102"
         x="16.630953"
         y="158.02571"
         style="font-style:normal;font-variant:normal;font-weight:normal;font-stretch:normal;font-size:50.79999924px;font-family:'Bravura Text';-inkscape-font-specification:'Bravura Text';stroke-width:0.26458332" /></text>
    <g
       id="g249"
       transform="matrix(1.3693739,0,0,1.3693739,-15.471267,-20.490324)">
      <g
         id="text108"
         style="font-style:normal;font-variant:normal;font-weight:normal;font-stretch:normal;font-size:120.26547241px;line-height:1.25;font-family:'Bravura Text';-inkscape-font-specification:'Bravura Text, Normal';font-variant-ligatures:normal;font-variant-caps:normal;font-variant-numeric:normal;font-feature-settings:normal;text-align:start;letter-spacing:0px;word-spacing:0px;writing-mode:lr-tb;text-anchor:start;fill:#000000;fill-opacity:1;stroke:none;stroke-width:0.62638098"
         aria-label="">
        <path
           id="path239"
           d="m 37.866411,149.79543 c 1.202654,1.20266 2.766106,1.68372 4.329557,1.68372 0.721593,0 1.683716,-0.24053 2.405309,-0.48106 3.006637,-0.72159 5.291681,-3.8485 5.291681,-6.85513 0,-0.3608 0,-0.7216 -0.120265,-1.08239 -0.481062,-3.1269 -3.126903,-5.53221 -6.013274,-6.49434 -2.285044,-0.96212 -5.171415,-1.32292 -7.576725,-1.32292 -7.336194,0.12027 -14.191326,3.72823 -17.679024,10.22257 -2.044513,4.08902 -3.72823,9.14017 -3.72823,13.71026 v 0.3608 c 0.120266,4.44982 0.841858,9.3807 3.006637,13.2292 2.044513,3.72823 5.291681,7.57672 9.01991,9.26044 2.40531,1.08239 5.291681,1.32292 7.696991,1.32292 4.329557,0 9.140175,-0.60133 12.627874,-3.4877 3.367433,-2.64584 5.532212,-6.9754 5.532212,-11.30495 0,-5.41195 -2.886371,-8.65912 -5.893008,-10.94416 -2.645841,-1.92425 -5.652478,-3.00664 -8.659114,-3.00664 -3.006637,0 -6.253805,1.20266 -8.659114,3.36744 -0.240531,0.24053 -0.481062,0.24053 -0.601328,0.24053 -0.601327,0 -0.841858,-0.84186 -0.841858,-2.40531 0.240531,-17.79929 5.893008,-18.28035 7.937521,-18.28035 1.924248,0 3.126902,0.48106 3.126902,1.44318 0,1.44319 -1.803982,2.52558 -2.405309,3.72823 -0.481062,0.84186 -0.601327,1.80398 -0.601327,2.76611 0,1.44318 0.481062,2.88637 1.443185,3.96876 0.120266,0.12026 0.240531,0.24053 0.360797,0.36079 z m -3.607964,9.38071 c 3.006636,0 5.652477,4.81062 5.652477,10.82389 0,6.01328 -2.645841,10.8239 -5.652477,10.8239 -3.126903,0 -5.652478,-4.81062 -5.652478,-10.8239 0,-6.01327 2.525575,-10.82389 5.652478,-10.82389 z"
           inkscape:connector-curvature="0" />
      </g>
      <g
         id="text39"
         style="font-style:normal;font-variant:normal;font-weight:normal;font-stretch:normal;font-size:120.26547241px;line-height:1.25;font-family:'Bravura Text';-inkscape-font-specification:'Bravura Text, Normal';font-variant-ligatures:normal;font-variant-caps:normal;font-variant-numeric:normal;font-feature-settings:normal;text-align:start;letter-spacing:0px;word-spacing:0px;writing-mode:lr-tb;text-anchor:start;fill:#000000;fill-opacity:1;stroke:none;stroke-width:0.62638098"
         inkscape:transform-center-y="-43.089286"
         inkscape:transform-center-x="23.434524"
         aria-label="">
        <path
           id="path242"
           d="m 44.250799,214.89329 v -20.5654 c 0,-0.72159 -0.120266,-1.68372 -1.202655,-1.68372 -0.841858,0 -1.32292,0.24053 -1.924248,0.96213 l -9.140175,11.06442 c -0.360797,0.48106 -0.841859,0.96212 -0.841859,2.16478 v 8.05779 H 18.153191 c 7.69699,-6.49434 23.090971,-28.38266 23.331502,-29.46505 0,-0.12026 0.120265,-0.24053 0.120265,-0.48106 0,-0.72159 -0.721593,-1.32292 -1.443185,-1.32292 -0.841859,0 -4.810619,0.24053 -6.494336,0.24053 -1.803982,0 -6.133539,-0.24053 -6.855132,-0.24053 -0.841858,0 -2.285044,0.3608 -2.285044,1.80398 0,12.02655 -9.380707,25.37602 -12.267078,29.34478 l -0.601327,0.84186 c 0,0.12026 -0.120266,0.12026 -0.120266,0.24053 -0.120265,0.3608 -0.240531,0.84186 -0.240531,1.08239 0,0.96212 0.721593,1.68372 1.924248,1.68372 h 17.919555 v 6.01327 c 0,2.64584 -2.164778,3.36743 -3.848495,3.36743 -1.563451,0 -2.285044,0.84186 -2.285044,1.80398 0,0.96213 0.481062,2.04452 1.924248,2.04452 h 20.44513 c 0.962124,0 1.924248,-0.7216 1.924248,-2.04452 0,-1.32292 -1.202655,-1.92424 -2.164779,-1.92424 -0.962124,0 -2.886371,-0.60133 -2.886371,-3.60797 v -5.65247 h 6.975397 c 0.962124,0 1.443186,-0.7216 1.443186,-1.92425 0,-1.08239 -0.360797,-1.80398 -1.443186,-1.80398 z"
           inkscape:connector-curvature="0" />
      </g>
    </g>
  </g>
</svg>
