<?xml version="1.0" encoding="UTF-8" standalone="no"?>
<!-- Created with Inkscape (http://www.inkscape.org/) -->

<svg
   xmlns:dc="http://purl.org/dc/elements/1.1/"
   xmlns:cc="http://creativecommons.org/ns#"
   xmlns:rdf="http://www.w3.org/1999/02/22-rdf-syntax-ns#"
   xmlns:svg="http://www.w3.org/2000/svg"
   xmlns="http://www.w3.org/2000/svg"
   xmlns:sodipodi="http://sodipodi.sourceforge.net/DTD/sodipodi-0.dtd"
   xmlns:inkscape="http://www.inkscape.org/namespaces/inkscape"
   width="52.825516mm"
   height="132.29167mm"
   viewBox="0 0 52.825516 132.29167"
   version="1.1"
   id="svg94"
   sodipodi:docname="ts-7-8.svg"
   inkscape:version="0.92.2 5c3e80d, 2017-08-06">
  <defs
     id="defs88" />
  <sodipodi:namedview
     id="base"
     pagecolor="#ffffff"
     bordercolor="#666666"
     borderopacity="1.0"
     inkscape:pageopacity="0.0"
     inkscape:pageshadow="2"
     inkscape:zoom="0.35"
     inkscape:cx="905.71428"
     inkscape:cy="102.85716"
     inkscape:document-units="mm"
     inkscape:current-layer="layer1"
     showgrid="false"
     inkscape:window-width="1680"
     inkscape:window-height="1005"
     inkscape:window-x="0"
     inkscape:window-y="1"
     inkscape:window-maximized="1"
     fit-margin-top="0"
     fit-margin-left="0"
     fit-margin-right="0"
     fit-margin-bottom="0" />
  <metadata
     id="metadata91">
    <rdf:RDF>
      <cc:Work
         rdf:about="">
        <dc:format>image/svg+xml</dc:format>
        <dc:type
           rdf:resource="http://purl.org/dc/dcmitype/StillImage" />
        <dc:title></dc:title>
      </cc:Work>
    </rdf:RDF>
  </metadata>
  <g
     inkscape:label="Layer 1"
     inkscape:groupmode="layer"
     id="layer1"
     transform="translate(-4.868497e-7,-164.70834)">
    <text
       xml:space="preserve"
       style="font-style:normal;font-variant:normal;font-weight:normal;font-stretch:normal;font-size:10.58333302px;line-height:1.25;font-family:'Bravura Text';-inkscape-font-specification:'Bravura Text, Normal';font-variant-ligatures:normal;font-variant-caps:normal;font-variant-numeric:normal;font-feature-settings:normal;text-align:start;letter-spacing:0px;word-spacing:0px;writing-mode:lr-tb;text-anchor:start;fill:#000000;fill-opacity:1;stroke:none;stroke-width:0.26458332"
       x="16.630953"
       y="117.83928"
       id="text98"><tspan
         sodipodi:role="line"
         id="tspan100"
         x="16.630953"
         y="127.62886" /></text>
    <text
       xml:space="preserve"
       style="font-style:normal;font-variant:normal;font-weight:normal;font-stretch:normal;font-size:50.79999924px;line-height:1.25;font-family:'Bravura Text';-inkscape-font-specification:'Bravura Text';letter-spacing:0px;word-spacing:0px;fill:#000000;fill-opacity:1;stroke:none;stroke-width:0.26458332"
       x="16.630953"
       y="111.03571"
       id="text104"><tspan
         sodipodi:role="line"
         id="tspan102"
         x="16.630953"
         y="158.02571"
         style="font-style:normal;font-variant:normal;font-weight:normal;font-stretch:normal;font-size:50.79999924px;font-family:'Bravura Text';-inkscape-font-specification:'Bravura Text';stroke-width:0.26458332" /></text>
    <g
       id="g162"
       transform="matrix(1.3683517,0,0,1.3683517,-18.045741,-21.405282)">
      <g
         id="text108"
         style="font-style:normal;font-variant:normal;font-weight:normal;font-stretch:normal;font-size:120.26547241px;line-height:1.25;font-family:'Bravura Text';-inkscape-font-specification:'Bravura Text, Normal';font-variant-ligatures:normal;font-variant-caps:normal;font-variant-numeric:normal;font-feature-settings:normal;text-align:start;letter-spacing:0px;word-spacing:0px;writing-mode:lr-tb;text-anchor:start;fill:#000000;fill-opacity:1;stroke:none;stroke-width:0.62638098"
         aria-label="">
        <path
           id="path155"
           d="m 51.793158,140.34256 c 0,-2.64584 0,-3.8485 -1.683717,-3.8485 -0.120265,0 -1.563451,0.3608 -2.044513,1.08239 -0.601327,1.08239 -1.924247,6.6146 -4.329557,6.6146 -2.405309,0 -6.975397,-8.17805 -14.912918,-8.17805 -5.652477,0 -7.095663,2.16478 -8.418583,3.4877 -1.32292,1.20266 -1.924248,1.56345 -2.645841,1.68372 -0.721593,0 -1.924247,-1.32292 -2.405309,-2.28505 -0.240531,-0.36079 -0.721593,-0.72159 -1.202655,-0.72159 -0.481062,0 -0.962124,0.3608 -0.962124,1.20266 v 15.87504 c 0,0 0.120266,1.56345 1.08239,1.56345 0.721592,0 1.082389,-0.96212 1.443185,-1.92425 0.962124,-2.40531 2.164779,-8.05779 6.494336,-8.05779 3.848495,0 8.538848,7.21593 14.07106,7.21593 2.64584,0 4.089026,-1.44318 4.810619,-2.04451 0.240531,-0.12027 0.721593,-0.3608 0.841858,-0.3608 0.360797,0 0.601328,0.3608 0.721593,0.84186 0,2.76611 -7.456459,8.17805 -13.229202,14.91292 -3.607964,4.32956 -6.614601,9.86177 -6.614601,13.59 0,2.04451 0,3.00664 1.803982,3.00664 1.803982,0 3.848495,-0.84186 6.253805,-0.84186 2.405309,0 6.975397,0.84186 7.937521,0.84186 0.962124,0 1.563451,-0.7216 1.563451,-3.60797 0,-15.99531 11.42522,-29.82584 11.42522,-39.6876 z"
           inkscape:connector-curvature="0" />
      </g>
      <g
         id="text39"
         style="font-style:normal;font-variant:normal;font-weight:normal;font-stretch:normal;font-size:120.26547241px;line-height:1.25;font-family:'Bravura Text';-inkscape-font-specification:'Bravura Text, Normal';font-variant-ligatures:normal;font-variant-caps:normal;font-variant-numeric:normal;font-feature-settings:normal;text-align:start;letter-spacing:0px;word-spacing:0px;writing-mode:lr-tb;text-anchor:start;fill:#000000;fill-opacity:1;stroke:none;stroke-width:0.62638098"
         inkscape:transform-center-y="-43.089286"
         inkscape:transform-center-x="23.434524"
         aria-label="">
        <path
           id="path152"
           d="m 43.601358,204.30992 c 3.487698,-2.16477 5.772742,-5.41194 5.772742,-10.22256 0,-9.7415 -14.07106,-11.18469 -16.7169,-11.18469 -11.184689,0 -18.761414,5.05115 -18.761414,13.10894 0,6.73486 3.72823,10.22256 8.418583,12.8684 -5.05115,2.40531 -8.899645,5.53221 -8.899645,11.66575 0,8.29832 8.659114,12.14682 18.160087,12.14682 9.621237,0 19.964068,-4.08903 19.964068,-17.0777 0,-5.77274 -3.367433,-9.01991 -7.937521,-11.30496 z m -12.387344,25.25575 c -6.494335,0 -12.267078,-3.24716 -12.267078,-9.50097 0,-3.84849 3.367433,-7.45646 7.576725,-9.14018 6.975397,3.12691 14.07106,5.17142 14.07106,11.54549 0,3.8485 -2.886371,7.09566 -9.380707,7.09566 z m 7.456459,-27.42052 c -7.69699,-2.76611 -15.875042,-4.32956 -15.875042,-10.4631 0,-3.96876 5.411946,-6.01327 9.621238,-6.01327 3.126902,0 11.304954,1.56345 11.304954,8.29831 0,3.8485 -1.924247,6.37407 -5.05115,8.17806 z"
           inkscape:connector-curvature="0" />
      </g>
    </g>
  </g>
</svg>
