<?xml version="1.0" encoding="UTF-8" standalone="no"?>
<!-- Created with Inkscape (http://www.inkscape.org/) -->

<svg
   xmlns:dc="http://purl.org/dc/elements/1.1/"
   xmlns:cc="http://creativecommons.org/ns#"
   xmlns:rdf="http://www.w3.org/1999/02/22-rdf-syntax-ns#"
   xmlns:svg="http://www.w3.org/2000/svg"
   xmlns="http://www.w3.org/2000/svg"
   xmlns:sodipodi="http://sodipodi.sourceforge.net/DTD/sodipodi-0.dtd"
   xmlns:inkscape="http://www.inkscape.org/namespaces/inkscape"
   width="76.710793mm"
   height="132.29167mm"
   viewBox="0 0 76.710793 132.29167"
   version="1.1"
   id="svg94"
   sodipodi:docname="ts-cut.svg"
   inkscape:version="0.92.2 5c3e80d, 2017-08-06">
  <defs
     id="defs88" />
  <sodipodi:namedview
     id="base"
     pagecolor="#ffffff"
     bordercolor="#666666"
     borderopacity="1.0"
     inkscape:pageopacity="0.0"
     inkscape:pageshadow="2"
     inkscape:zoom="0.35"
     inkscape:cx="905.71428"
     inkscape:cy="102.85706"
     inkscape:document-units="mm"
     inkscape:current-layer="layer1"
     showgrid="false"
     inkscape:window-width="1680"
     inkscape:window-height="1005"
     inkscape:window-x="0"
     inkscape:window-y="1"
     inkscape:window-maximized="1"
     fit-margin-top="0"
     fit-margin-left="0"
     fit-margin-right="0"
     fit-margin-bottom="0" />
  <metadata
     id="metadata91">
    <rdf:RDF>
      <cc:Work
         rdf:about="">
        <dc:format>image/svg+xml</dc:format>
        <dc:type
           rdf:resource="http://purl.org/dc/dcmitype/StillImage" />
        <dc:title></dc:title>
      </cc:Work>
    </rdf:RDF>
  </metadata>
  <g
     inkscape:label="Layer 1"
     inkscape:groupmode="layer"
     id="layer1"
     transform="translate(5.9709758e-7,-164.70834)">
    <text
       xml:space="preserve"
       style="font-style:normal;font-variant:normal;font-weight:normal;font-stretch:normal;font-size:10.58333302px;line-height:1.25;font-family:'Bravura Text';-inkscape-font-specification:'Bravura Text, Normal';font-variant-ligatures:normal;font-variant-caps:normal;font-variant-numeric:normal;font-feature-settings:normal;text-align:start;letter-spacing:0px;word-spacing:0px;writing-mode:lr-tb;text-anchor:start;fill:#000000;fill-opacity:1;stroke:none;stroke-width:0.26458332"
       x="16.630953"
       y="117.83928"
       id="text98"><tspan
         sodipodi:role="line"
         id="tspan100"
         x="16.630953"
         y="127.62886" /></text>
    <text
       xml:space="preserve"
       style="font-style:normal;font-variant:normal;font-weight:normal;font-stretch:normal;font-size:50.79999924px;line-height:1.25;font-family:'Bravura Text';-inkscape-font-specification:'Bravura Text';letter-spacing:0px;word-spacing:0px;fill:#000000;fill-opacity:1;stroke:none;stroke-width:0.26458332"
       x="16.630953"
       y="111.03571"
       id="text104"><tspan
         sodipodi:role="line"
         id="tspan102"
         x="16.630953"
         y="158.02571"
         style="font-style:normal;font-variant:normal;font-weight:normal;font-stretch:normal;font-size:50.79999924px;font-family:'Bravura Text';-inkscape-font-specification:'Bravura Text';stroke-width:0.26458332" /></text>
    <g
       aria-label=""
       style="font-style:normal;font-variant:normal;font-weight:normal;font-stretch:normal;font-size:120.26547241px;line-height:1.25;font-family:'Bravura Text';-inkscape-font-specification:'Bravura Text, Normal';font-variant-ligatures:normal;font-variant-caps:normal;font-variant-numeric:normal;font-feature-settings:normal;text-align:start;letter-spacing:0px;word-spacing:0px;writing-mode:lr-tb;text-anchor:start;fill:#000000;fill-opacity:1;stroke:none;stroke-width:0.62638098"
       id="text108"
       transform="matrix(1.9097172,0,0,1.9097172,-24.542143,-74.367459)">
      <path
         d="m 29.688359,175.58034 c 0,0.96213 -0.240531,1.20266 -0.601328,1.20266 -0.120265,0 -0.360796,-0.12027 -0.481062,-0.24053 -2.525575,-3.72823 -3.96876,-10.1023 -3.96876,-19.12221 0,-7.3362 1.563451,-11.78602 3.728229,-14.79266 0.120266,-0.24053 0.120266,-0.24053 0.240531,-0.24053 0.481062,0 1.08239,0.84186 1.08239,1.56345 z m 21.407254,-11.78601 c -0.360797,0 -0.962124,0.24053 -0.962124,1.68371 0,12.26708 -10.583362,15.15345 -13.589998,15.15345 -0.962124,0 -1.803983,-0.12026 -2.525575,-0.24053 -0.360797,-0.12026 -0.962124,-0.72159 -0.962124,-1.44318 v -38.12416 c 0,-0.72159 1.683716,-2.28504 2.405309,-2.40531 0.601328,-0.12026 1.202655,-0.12026 1.683717,-0.12026 4.810619,0 6.975397,2.28504 6.975397,3.24716 0,0.84186 -0.240531,2.16478 -1.683716,2.16478 -3.848495,0 -6.133539,4.08903 -6.133539,7.09567 0,5.41194 4.690353,7.09566 7.456459,7.09566 0,0 7.336194,-0.24053 7.336194,-8.29832 0,-12.50761 -14.552122,-13.59 -16.356105,-13.59 -0.24053,0 0,0.12027 -0.601327,0.12027 -0.601327,-0.12027 -1.082389,-1.80398 -1.082389,-2.28505 v -6.97539 c 0,-0.84186 -0.721593,-1.68372 -1.683717,-1.68372 -0.841858,0 -1.683716,0.84186 -1.683716,1.68372 v 6.01327 2.40531 c 0,0.72159 -0.962124,1.56345 -1.202655,1.56345 l -2.525575,0.96212 c -8.659114,3.72823 -13.108937,13.9508 -13.108937,23.09098 0,0.84185 0,1.80398 0.120266,2.64584 0.481062,5.17141 2.886371,9.98203 6.253805,13.95079 2.285043,2.76611 5.29168,4.69035 8.659114,5.53221 0.601327,0.24053 1.803982,1.56345 1.803982,2.40531 v 7.45646 c 0,0.84186 0.841858,1.56345 1.683716,1.56345 0.962124,0 1.683717,-0.72159 1.683717,-1.56345 v -7.69699 c 0,-0.48106 0.360796,-0.96212 1.082389,-1.32292 16.356104,-0.24053 18.881679,-15.27371 18.881679,-18.28035 0,-1.80398 -0.962124,-1.80398 -1.443185,-1.80398 z"
         id="path184"
         inkscape:connector-curvature="0" />
    </g>
  </g>
</svg>
